<?xml version="1.0" encoding="utf-8" standalone="no"?>
<!DOCTYPE svg PUBLIC "-//W3C//DTD SVG 1.1//EN"
  "http://www.w3.org/Graphics/SVG/1.1/DTD/svg11.dtd">
<svg xmlns:xlink="http://www.w3.org/1999/xlink" width="864pt" height="432pt" viewBox="0 0 864 432" xmlns="http://www.w3.org/2000/svg" version="1.1">
 <metadata>
  <rdf:RDF xmlns:dc="http://purl.org/dc/elements/1.1/" xmlns:cc="http://creativecommons.org/ns#" xmlns:rdf="http://www.w3.org/1999/02/22-rdf-syntax-ns#">
   <cc:Work>
    <dc:type rdf:resource="http://purl.org/dc/dcmitype/StillImage"/>
    <dc:date>2025-04-28T17:04:44.780482</dc:date>
    <dc:format>image/svg+xml</dc:format>
    <dc:creator>
     <cc:Agent>
      <dc:title>Matplotlib v3.10.1, https://matplotlib.org/</dc:title>
     </cc:Agent>
    </dc:creator>
   </cc:Work>
  </rdf:RDF>
 </metadata>
 <defs>
  <style type="text/css">*{stroke-linejoin: round; stroke-linecap: butt}</style>
 </defs>
 <g id="figure_1">
  <g id="patch_1">
   <path d="M 0 432 
L 864 432 
L 864 0 
L 0 0 
z
" style="fill: #ffffff"/>
  </g>
  <g id="axes_1">
   <g id="patch_2">
    <path d="M 108 384.48 
L 777.6 384.48 
L 777.6 51.84 
L 108 51.84 
z
" style="fill: #ffffff"/>
   </g>
   <g id="matplotlib.axis_1">
    <g id="xtick_1">
     <g id="line2d_1">
      <path d="M 177.628948 384.48 
L 177.628948 51.84 
" clip-path="url(#pe68255b4e6)" style="fill: none; stroke: #cccccc; stroke-linecap: round"/>
     </g>
     <g id="text_1">
      <!-- 2008 -->
      <g style="fill: #262626" transform="translate(165.394886 401.853594) scale(0.11 -0.11)">
       <defs>
        <path id="ArialMT-32" d="M 3222 541 
L 3222 0 
L 194 0 
Q 188 203 259 391 
Q 375 700 629 1000 
Q 884 1300 1366 1694 
Q 2113 2306 2375 2664 
Q 2638 3022 2638 3341 
Q 2638 3675 2398 3904 
Q 2159 4134 1775 4134 
Q 1369 4134 1125 3890 
Q 881 3647 878 3216 
L 300 3275 
Q 359 3922 746 4261 
Q 1134 4600 1788 4600 
Q 2447 4600 2831 4234 
Q 3216 3869 3216 3328 
Q 3216 3053 3103 2787 
Q 2991 2522 2730 2228 
Q 2469 1934 1863 1422 
Q 1356 997 1212 845 
Q 1069 694 975 541 
L 3222 541 
z
" transform="scale(0.015625)"/>
        <path id="ArialMT-30" d="M 266 2259 
Q 266 3072 433 3567 
Q 600 4063 929 4331 
Q 1259 4600 1759 4600 
Q 2128 4600 2406 4451 
Q 2684 4303 2865 4023 
Q 3047 3744 3150 3342 
Q 3253 2941 3253 2259 
Q 3253 1453 3087 958 
Q 2922 463 2592 192 
Q 2263 -78 1759 -78 
Q 1097 -78 719 397 
Q 266 969 266 2259 
z
M 844 2259 
Q 844 1131 1108 757 
Q 1372 384 1759 384 
Q 2147 384 2411 759 
Q 2675 1134 2675 2259 
Q 2675 3391 2411 3762 
Q 2147 4134 1753 4134 
Q 1366 4134 1134 3806 
Q 844 3388 844 2259 
z
" transform="scale(0.015625)"/>
        <path id="ArialMT-38" d="M 1131 2484 
Q 781 2613 612 2850 
Q 444 3088 444 3419 
Q 444 3919 803 4259 
Q 1163 4600 1759 4600 
Q 2359 4600 2725 4251 
Q 3091 3903 3091 3403 
Q 3091 3084 2923 2848 
Q 2756 2613 2416 2484 
Q 2838 2347 3058 2040 
Q 3278 1734 3278 1309 
Q 3278 722 2862 322 
Q 2447 -78 1769 -78 
Q 1091 -78 675 323 
Q 259 725 259 1325 
Q 259 1772 486 2073 
Q 713 2375 1131 2484 
z
M 1019 3438 
Q 1019 3113 1228 2906 
Q 1438 2700 1772 2700 
Q 2097 2700 2305 2904 
Q 2513 3109 2513 3406 
Q 2513 3716 2298 3927 
Q 2084 4138 1766 4138 
Q 1444 4138 1231 3931 
Q 1019 3725 1019 3438 
z
M 838 1322 
Q 838 1081 952 856 
Q 1066 631 1291 507 
Q 1516 384 1775 384 
Q 2178 384 2440 643 
Q 2703 903 2703 1303 
Q 2703 1709 2433 1975 
Q 2163 2241 1756 2241 
Q 1359 2241 1098 1978 
Q 838 1716 838 1322 
z
" transform="scale(0.015625)"/>
       </defs>
       <use xlink:href="#ArialMT-32"/>
       <use xlink:href="#ArialMT-30" transform="translate(55.615234 0)"/>
       <use xlink:href="#ArialMT-30" transform="translate(111.230469 0)"/>
       <use xlink:href="#ArialMT-38" transform="translate(166.845703 0)"/>
      </g>
     </g>
    </g>
    <g id="xtick_2">
     <g id="line2d_2">
      <path d="M 258.593266 384.48 
L 258.593266 51.84 
" clip-path="url(#pe68255b4e6)" style="fill: none; stroke: #cccccc; stroke-linecap: round"/>
     </g>
     <g id="text_2">
      <!-- 2010 -->
      <g style="fill: #262626" transform="translate(246.359203 401.853594) scale(0.11 -0.11)">
       <defs>
        <path id="ArialMT-31" d="M 2384 0 
L 1822 0 
L 1822 3584 
Q 1619 3391 1289 3197 
Q 959 3003 697 2906 
L 697 3450 
Q 1169 3672 1522 3987 
Q 1875 4303 2022 4600 
L 2384 4600 
L 2384 0 
z
" transform="scale(0.015625)"/>
       </defs>
       <use xlink:href="#ArialMT-32"/>
       <use xlink:href="#ArialMT-30" transform="translate(55.615234 0)"/>
       <use xlink:href="#ArialMT-31" transform="translate(111.230469 0)"/>
       <use xlink:href="#ArialMT-30" transform="translate(166.845703 0)"/>
      </g>
     </g>
    </g>
    <g id="xtick_3">
     <g id="line2d_3">
      <path d="M 339.557583 384.48 
L 339.557583 51.84 
" clip-path="url(#pe68255b4e6)" style="fill: none; stroke: #cccccc; stroke-linecap: round"/>
     </g>
     <g id="text_3">
      <!-- 2012 -->
      <g style="fill: #262626" transform="translate(327.323521 401.853594) scale(0.11 -0.11)">
       <use xlink:href="#ArialMT-32"/>
       <use xlink:href="#ArialMT-30" transform="translate(55.615234 0)"/>
       <use xlink:href="#ArialMT-31" transform="translate(111.230469 0)"/>
       <use xlink:href="#ArialMT-32" transform="translate(166.845703 0)"/>
      </g>
     </g>
    </g>
    <g id="xtick_4">
     <g id="line2d_4">
      <path d="M 420.521901 384.48 
L 420.521901 51.84 
" clip-path="url(#pe68255b4e6)" style="fill: none; stroke: #cccccc; stroke-linecap: round"/>
     </g>
     <g id="text_4">
      <!-- 2014 -->
      <g style="fill: #262626" transform="translate(408.287838 401.853594) scale(0.11 -0.11)">
       <defs>
        <path id="ArialMT-34" d="M 2069 0 
L 2069 1097 
L 81 1097 
L 81 1613 
L 2172 4581 
L 2631 4581 
L 2631 1613 
L 3250 1613 
L 3250 1097 
L 2631 1097 
L 2631 0 
L 2069 0 
z
M 2069 1613 
L 2069 3678 
L 634 1613 
L 2069 1613 
z
" transform="scale(0.015625)"/>
       </defs>
       <use xlink:href="#ArialMT-32"/>
       <use xlink:href="#ArialMT-30" transform="translate(55.615234 0)"/>
       <use xlink:href="#ArialMT-31" transform="translate(111.230469 0)"/>
       <use xlink:href="#ArialMT-34" transform="translate(166.845703 0)"/>
      </g>
     </g>
    </g>
    <g id="xtick_5">
     <g id="line2d_5">
      <path d="M 501.486218 384.48 
L 501.486218 51.84 
" clip-path="url(#pe68255b4e6)" style="fill: none; stroke: #cccccc; stroke-linecap: round"/>
     </g>
     <g id="text_5">
      <!-- 2016 -->
      <g style="fill: #262626" transform="translate(489.252155 401.853594) scale(0.11 -0.11)">
       <defs>
        <path id="ArialMT-36" d="M 3184 3459 
L 2625 3416 
Q 2550 3747 2413 3897 
Q 2184 4138 1850 4138 
Q 1581 4138 1378 3988 
Q 1113 3794 959 3422 
Q 806 3050 800 2363 
Q 1003 2672 1297 2822 
Q 1591 2972 1913 2972 
Q 2475 2972 2870 2558 
Q 3266 2144 3266 1488 
Q 3266 1056 3080 686 
Q 2894 316 2569 119 
Q 2244 -78 1831 -78 
Q 1128 -78 684 439 
Q 241 956 241 2144 
Q 241 3472 731 4075 
Q 1159 4600 1884 4600 
Q 2425 4600 2770 4297 
Q 3116 3994 3184 3459 
z
M 888 1484 
Q 888 1194 1011 928 
Q 1134 663 1356 523 
Q 1578 384 1822 384 
Q 2178 384 2434 671 
Q 2691 959 2691 1453 
Q 2691 1928 2437 2201 
Q 2184 2475 1800 2475 
Q 1419 2475 1153 2201 
Q 888 1928 888 1484 
z
" transform="scale(0.015625)"/>
       </defs>
       <use xlink:href="#ArialMT-32"/>
       <use xlink:href="#ArialMT-30" transform="translate(55.615234 0)"/>
       <use xlink:href="#ArialMT-31" transform="translate(111.230469 0)"/>
       <use xlink:href="#ArialMT-36" transform="translate(166.845703 0)"/>
      </g>
     </g>
    </g>
    <g id="xtick_6">
     <g id="line2d_6">
      <path d="M 582.450535 384.48 
L 582.450535 51.84 
" clip-path="url(#pe68255b4e6)" style="fill: none; stroke: #cccccc; stroke-linecap: round"/>
     </g>
     <g id="text_6">
      <!-- 2018 -->
      <g style="fill: #262626" transform="translate(570.216473 401.853594) scale(0.11 -0.11)">
       <use xlink:href="#ArialMT-32"/>
       <use xlink:href="#ArialMT-30" transform="translate(55.615234 0)"/>
       <use xlink:href="#ArialMT-31" transform="translate(111.230469 0)"/>
       <use xlink:href="#ArialMT-38" transform="translate(166.845703 0)"/>
      </g>
     </g>
    </g>
    <g id="xtick_7">
     <g id="line2d_7">
      <path d="M 663.414853 384.48 
L 663.414853 51.84 
" clip-path="url(#pe68255b4e6)" style="fill: none; stroke: #cccccc; stroke-linecap: round"/>
     </g>
     <g id="text_7">
      <!-- 2020 -->
      <g style="fill: #262626" transform="translate(651.18079 401.853594) scale(0.11 -0.11)">
       <use xlink:href="#ArialMT-32"/>
       <use xlink:href="#ArialMT-30" transform="translate(55.615234 0)"/>
       <use xlink:href="#ArialMT-32" transform="translate(111.230469 0)"/>
       <use xlink:href="#ArialMT-30" transform="translate(166.845703 0)"/>
      </g>
     </g>
    </g>
    <g id="xtick_8">
     <g id="line2d_8">
      <path d="M 744.37917 384.48 
L 744.37917 51.84 
" clip-path="url(#pe68255b4e6)" style="fill: none; stroke: #cccccc; stroke-linecap: round"/>
     </g>
     <g id="text_8">
      <!-- 2022 -->
      <g style="fill: #262626" transform="translate(732.145107 401.853594) scale(0.11 -0.11)">
       <use xlink:href="#ArialMT-32"/>
       <use xlink:href="#ArialMT-30" transform="translate(55.615234 0)"/>
       <use xlink:href="#ArialMT-32" transform="translate(111.230469 0)"/>
       <use xlink:href="#ArialMT-32" transform="translate(166.845703 0)"/>
      </g>
     </g>
    </g>
    <g id="text_9">
     <!-- Year Added -->
     <g style="fill: #262626" transform="translate(411.989062 416.629219) scale(0.12 -0.12)">
      <defs>
       <path id="ArialMT-59" d="M 1784 0 
L 1784 1941 
L 19 4581 
L 756 4581 
L 1659 3200 
Q 1909 2813 2125 2425 
Q 2331 2784 2625 3234 
L 3513 4581 
L 4219 4581 
L 2391 1941 
L 2391 0 
L 1784 0 
z
" transform="scale(0.015625)"/>
       <path id="ArialMT-65" d="M 2694 1069 
L 3275 997 
Q 3138 488 2766 206 
Q 2394 -75 1816 -75 
Q 1088 -75 661 373 
Q 234 822 234 1631 
Q 234 2469 665 2931 
Q 1097 3394 1784 3394 
Q 2450 3394 2872 2941 
Q 3294 2488 3294 1666 
Q 3294 1616 3291 1516 
L 816 1516 
Q 847 969 1125 678 
Q 1403 388 1819 388 
Q 2128 388 2347 550 
Q 2566 713 2694 1069 
z
M 847 1978 
L 2700 1978 
Q 2663 2397 2488 2606 
Q 2219 2931 1791 2931 
Q 1403 2931 1139 2672 
Q 875 2413 847 1978 
z
" transform="scale(0.015625)"/>
       <path id="ArialMT-61" d="M 2588 409 
Q 2275 144 1986 34 
Q 1697 -75 1366 -75 
Q 819 -75 525 192 
Q 231 459 231 875 
Q 231 1119 342 1320 
Q 453 1522 633 1644 
Q 813 1766 1038 1828 
Q 1203 1872 1538 1913 
Q 2219 1994 2541 2106 
Q 2544 2222 2544 2253 
Q 2544 2597 2384 2738 
Q 2169 2928 1744 2928 
Q 1347 2928 1158 2789 
Q 969 2650 878 2297 
L 328 2372 
Q 403 2725 575 2942 
Q 747 3159 1072 3276 
Q 1397 3394 1825 3394 
Q 2250 3394 2515 3294 
Q 2781 3194 2906 3042 
Q 3031 2891 3081 2659 
Q 3109 2516 3109 2141 
L 3109 1391 
Q 3109 606 3145 398 
Q 3181 191 3288 0 
L 2700 0 
Q 2613 175 2588 409 
z
M 2541 1666 
Q 2234 1541 1622 1453 
Q 1275 1403 1131 1340 
Q 988 1278 909 1158 
Q 831 1038 831 891 
Q 831 666 1001 516 
Q 1172 366 1500 366 
Q 1825 366 2078 508 
Q 2331 650 2450 897 
Q 2541 1088 2541 1459 
L 2541 1666 
z
" transform="scale(0.015625)"/>
       <path id="ArialMT-72" d="M 416 0 
L 416 3319 
L 922 3319 
L 922 2816 
Q 1116 3169 1280 3281 
Q 1444 3394 1641 3394 
Q 1925 3394 2219 3213 
L 2025 2691 
Q 1819 2813 1613 2813 
Q 1428 2813 1281 2702 
Q 1134 2591 1072 2394 
Q 978 2094 978 1738 
L 978 0 
L 416 0 
z
" transform="scale(0.015625)"/>
       <path id="ArialMT-20" transform="scale(0.015625)"/>
       <path id="ArialMT-41" d="M -9 0 
L 1750 4581 
L 2403 4581 
L 4278 0 
L 3588 0 
L 3053 1388 
L 1138 1388 
L 634 0 
L -9 0 
z
M 1313 1881 
L 2866 1881 
L 2388 3150 
Q 2169 3728 2063 4100 
Q 1975 3659 1816 3225 
L 1313 1881 
z
" transform="scale(0.015625)"/>
       <path id="ArialMT-64" d="M 2575 0 
L 2575 419 
Q 2259 -75 1647 -75 
Q 1250 -75 917 144 
Q 584 363 401 755 
Q 219 1147 219 1656 
Q 219 2153 384 2558 
Q 550 2963 881 3178 
Q 1213 3394 1622 3394 
Q 1922 3394 2156 3267 
Q 2391 3141 2538 2938 
L 2538 4581 
L 3097 4581 
L 3097 0 
L 2575 0 
z
M 797 1656 
Q 797 1019 1065 703 
Q 1334 388 1700 388 
Q 2069 388 2326 689 
Q 2584 991 2584 1609 
Q 2584 2291 2321 2609 
Q 2059 2928 1675 2928 
Q 1300 2928 1048 2622 
Q 797 2316 797 1656 
z
" transform="scale(0.015625)"/>
      </defs>
      <use xlink:href="#ArialMT-59"/>
      <use xlink:href="#ArialMT-65" transform="translate(57.574219 0)"/>
      <use xlink:href="#ArialMT-61" transform="translate(113.189453 0)"/>
      <use xlink:href="#ArialMT-72" transform="translate(168.804688 0)"/>
      <use xlink:href="#ArialMT-20" transform="translate(202.105469 0)"/>
      <use xlink:href="#ArialMT-41" transform="translate(224.388672 0)"/>
      <use xlink:href="#ArialMT-64" transform="translate(291.087891 0)"/>
      <use xlink:href="#ArialMT-64" transform="translate(346.703125 0)"/>
      <use xlink:href="#ArialMT-65" transform="translate(402.318359 0)"/>
      <use xlink:href="#ArialMT-64" transform="translate(457.933594 0)"/>
     </g>
    </g>
   </g>
   <g id="matplotlib.axis_2">
    <g id="ytick_1">
     <g id="line2d_9">
      <path d="M 108 384.48 
L 777.6 384.48 
" clip-path="url(#pe68255b4e6)" style="fill: none; stroke: #cccccc; stroke-linecap: round"/>
     </g>
     <g id="text_10">
      <!-- 0.00 -->
      <g style="fill: #262626" transform="translate(77.092969 388.416797) scale(0.11 -0.11)">
       <defs>
        <path id="ArialMT-2e" d="M 581 0 
L 581 641 
L 1222 641 
L 1222 0 
L 581 0 
z
" transform="scale(0.015625)"/>
       </defs>
       <use xlink:href="#ArialMT-30"/>
       <use xlink:href="#ArialMT-2e" transform="translate(55.615234 0)"/>
       <use xlink:href="#ArialMT-30" transform="translate(83.398438 0)"/>
       <use xlink:href="#ArialMT-30" transform="translate(139.013672 0)"/>
      </g>
     </g>
    </g>
    <g id="ytick_2">
     <g id="line2d_10">
      <path d="M 108 337.157347 
L 777.6 337.157347 
" clip-path="url(#pe68255b4e6)" style="fill: none; stroke: #cccccc; stroke-linecap: round"/>
     </g>
     <g id="text_11">
      <!-- 0.05 -->
      <g style="fill: #262626" transform="translate(77.092969 341.094143) scale(0.11 -0.11)">
       <defs>
        <path id="ArialMT-35" d="M 266 1200 
L 856 1250 
Q 922 819 1161 601 
Q 1400 384 1738 384 
Q 2144 384 2425 690 
Q 2706 997 2706 1503 
Q 2706 1984 2436 2262 
Q 2166 2541 1728 2541 
Q 1456 2541 1237 2417 
Q 1019 2294 894 2097 
L 366 2166 
L 809 4519 
L 3088 4519 
L 3088 3981 
L 1259 3981 
L 1013 2750 
Q 1425 3038 1878 3038 
Q 2478 3038 2890 2622 
Q 3303 2206 3303 1553 
Q 3303 931 2941 478 
Q 2500 -78 1738 -78 
Q 1113 -78 717 272 
Q 322 622 266 1200 
z
" transform="scale(0.015625)"/>
       </defs>
       <use xlink:href="#ArialMT-30"/>
       <use xlink:href="#ArialMT-2e" transform="translate(55.615234 0)"/>
       <use xlink:href="#ArialMT-30" transform="translate(83.398438 0)"/>
       <use xlink:href="#ArialMT-35" transform="translate(139.013672 0)"/>
      </g>
     </g>
    </g>
    <g id="ytick_3">
     <g id="line2d_11">
      <path d="M 108 289.834693 
L 777.6 289.834693 
" clip-path="url(#pe68255b4e6)" style="fill: none; stroke: #cccccc; stroke-linecap: round"/>
     </g>
     <g id="text_12">
      <!-- 0.10 -->
      <g style="fill: #262626" transform="translate(77.092969 293.77149) scale(0.11 -0.11)">
       <use xlink:href="#ArialMT-30"/>
       <use xlink:href="#ArialMT-2e" transform="translate(55.615234 0)"/>
       <use xlink:href="#ArialMT-31" transform="translate(83.398438 0)"/>
       <use xlink:href="#ArialMT-30" transform="translate(139.013672 0)"/>
      </g>
     </g>
    </g>
    <g id="ytick_4">
     <g id="line2d_12">
      <path d="M 108 242.51204 
L 777.6 242.51204 
" clip-path="url(#pe68255b4e6)" style="fill: none; stroke: #cccccc; stroke-linecap: round"/>
     </g>
     <g id="text_13">
      <!-- 0.15 -->
      <g style="fill: #262626" transform="translate(77.092969 246.448837) scale(0.11 -0.11)">
       <use xlink:href="#ArialMT-30"/>
       <use xlink:href="#ArialMT-2e" transform="translate(55.615234 0)"/>
       <use xlink:href="#ArialMT-31" transform="translate(83.398438 0)"/>
       <use xlink:href="#ArialMT-35" transform="translate(139.013672 0)"/>
      </g>
     </g>
    </g>
    <g id="ytick_5">
     <g id="line2d_13">
      <path d="M 108 195.189386 
L 777.6 195.189386 
" clip-path="url(#pe68255b4e6)" style="fill: none; stroke: #cccccc; stroke-linecap: round"/>
     </g>
     <g id="text_14">
      <!-- 0.20 -->
      <g style="fill: #262626" transform="translate(77.092969 199.126183) scale(0.11 -0.11)">
       <use xlink:href="#ArialMT-30"/>
       <use xlink:href="#ArialMT-2e" transform="translate(55.615234 0)"/>
       <use xlink:href="#ArialMT-32" transform="translate(83.398438 0)"/>
       <use xlink:href="#ArialMT-30" transform="translate(139.013672 0)"/>
      </g>
     </g>
    </g>
    <g id="ytick_6">
     <g id="line2d_14">
      <path d="M 108 147.866733 
L 777.6 147.866733 
" clip-path="url(#pe68255b4e6)" style="fill: none; stroke: #cccccc; stroke-linecap: round"/>
     </g>
     <g id="text_15">
      <!-- 0.25 -->
      <g style="fill: #262626" transform="translate(77.092969 151.80353) scale(0.11 -0.11)">
       <use xlink:href="#ArialMT-30"/>
       <use xlink:href="#ArialMT-2e" transform="translate(55.615234 0)"/>
       <use xlink:href="#ArialMT-32" transform="translate(83.398438 0)"/>
       <use xlink:href="#ArialMT-35" transform="translate(139.013672 0)"/>
      </g>
     </g>
    </g>
    <g id="ytick_7">
     <g id="line2d_15">
      <path d="M 108 100.54408 
L 777.6 100.54408 
" clip-path="url(#pe68255b4e6)" style="fill: none; stroke: #cccccc; stroke-linecap: round"/>
     </g>
     <g id="text_16">
      <!-- 0.30 -->
      <g style="fill: #262626" transform="translate(77.092969 104.480877) scale(0.11 -0.11)">
       <defs>
        <path id="ArialMT-33" d="M 269 1209 
L 831 1284 
Q 928 806 1161 595 
Q 1394 384 1728 384 
Q 2125 384 2398 659 
Q 2672 934 2672 1341 
Q 2672 1728 2419 1979 
Q 2166 2231 1775 2231 
Q 1616 2231 1378 2169 
L 1441 2663 
Q 1497 2656 1531 2656 
Q 1891 2656 2178 2843 
Q 2466 3031 2466 3422 
Q 2466 3731 2256 3934 
Q 2047 4138 1716 4138 
Q 1388 4138 1169 3931 
Q 950 3725 888 3313 
L 325 3413 
Q 428 3978 793 4289 
Q 1159 4600 1703 4600 
Q 2078 4600 2393 4439 
Q 2709 4278 2876 4000 
Q 3044 3722 3044 3409 
Q 3044 3113 2884 2869 
Q 2725 2625 2413 2481 
Q 2819 2388 3044 2092 
Q 3269 1797 3269 1353 
Q 3269 753 2831 336 
Q 2394 -81 1725 -81 
Q 1122 -81 723 278 
Q 325 638 269 1209 
z
" transform="scale(0.015625)"/>
       </defs>
       <use xlink:href="#ArialMT-30"/>
       <use xlink:href="#ArialMT-2e" transform="translate(55.615234 0)"/>
       <use xlink:href="#ArialMT-33" transform="translate(83.398438 0)"/>
       <use xlink:href="#ArialMT-30" transform="translate(139.013672 0)"/>
      </g>
     </g>
    </g>
    <g id="ytick_8">
     <g id="line2d_16">
      <path d="M 108 53.221426 
L 777.6 53.221426 
" clip-path="url(#pe68255b4e6)" style="fill: none; stroke: #cccccc; stroke-linecap: round"/>
     </g>
     <g id="text_17">
      <!-- 0.35 -->
      <g style="fill: #262626" transform="translate(77.092969 57.158223) scale(0.11 -0.11)">
       <use xlink:href="#ArialMT-30"/>
       <use xlink:href="#ArialMT-2e" transform="translate(55.615234 0)"/>
       <use xlink:href="#ArialMT-33" transform="translate(83.398438 0)"/>
       <use xlink:href="#ArialMT-35" transform="translate(139.013672 0)"/>
      </g>
     </g>
    </g>
    <g id="text_18">
     <!-- Density -->
     <g style="fill: #262626" transform="translate(70.567344 238.16625) rotate(-90) scale(0.12 -0.12)">
      <defs>
       <path id="ArialMT-44" d="M 494 0 
L 494 4581 
L 2072 4581 
Q 2606 4581 2888 4516 
Q 3281 4425 3559 4188 
Q 3922 3881 4101 3404 
Q 4281 2928 4281 2316 
Q 4281 1794 4159 1391 
Q 4038 988 3847 723 
Q 3656 459 3429 307 
Q 3203 156 2883 78 
Q 2563 0 2147 0 
L 494 0 
z
M 1100 541 
L 2078 541 
Q 2531 541 2789 625 
Q 3047 709 3200 863 
Q 3416 1078 3536 1442 
Q 3656 1806 3656 2325 
Q 3656 3044 3420 3430 
Q 3184 3816 2847 3947 
Q 2603 4041 2063 4041 
L 1100 4041 
L 1100 541 
z
" transform="scale(0.015625)"/>
       <path id="ArialMT-6e" d="M 422 0 
L 422 3319 
L 928 3319 
L 928 2847 
Q 1294 3394 1984 3394 
Q 2284 3394 2536 3286 
Q 2788 3178 2913 3003 
Q 3038 2828 3088 2588 
Q 3119 2431 3119 2041 
L 3119 0 
L 2556 0 
L 2556 2019 
Q 2556 2363 2490 2533 
Q 2425 2703 2258 2804 
Q 2091 2906 1866 2906 
Q 1506 2906 1245 2678 
Q 984 2450 984 1813 
L 984 0 
L 422 0 
z
" transform="scale(0.015625)"/>
       <path id="ArialMT-73" d="M 197 991 
L 753 1078 
Q 800 744 1014 566 
Q 1228 388 1613 388 
Q 2000 388 2187 545 
Q 2375 703 2375 916 
Q 2375 1106 2209 1216 
Q 2094 1291 1634 1406 
Q 1016 1563 777 1677 
Q 538 1791 414 1992 
Q 291 2194 291 2438 
Q 291 2659 392 2848 
Q 494 3038 669 3163 
Q 800 3259 1026 3326 
Q 1253 3394 1513 3394 
Q 1903 3394 2198 3281 
Q 2494 3169 2634 2976 
Q 2775 2784 2828 2463 
L 2278 2388 
Q 2241 2644 2061 2787 
Q 1881 2931 1553 2931 
Q 1166 2931 1000 2803 
Q 834 2675 834 2503 
Q 834 2394 903 2306 
Q 972 2216 1119 2156 
Q 1203 2125 1616 2013 
Q 2213 1853 2448 1751 
Q 2684 1650 2818 1456 
Q 2953 1263 2953 975 
Q 2953 694 2789 445 
Q 2625 197 2315 61 
Q 2006 -75 1616 -75 
Q 969 -75 630 194 
Q 291 463 197 991 
z
" transform="scale(0.015625)"/>
       <path id="ArialMT-69" d="M 425 3934 
L 425 4581 
L 988 4581 
L 988 3934 
L 425 3934 
z
M 425 0 
L 425 3319 
L 988 3319 
L 988 0 
L 425 0 
z
" transform="scale(0.015625)"/>
       <path id="ArialMT-74" d="M 1650 503 
L 1731 6 
Q 1494 -44 1306 -44 
Q 1000 -44 831 53 
Q 663 150 594 308 
Q 525 466 525 972 
L 525 2881 
L 113 2881 
L 113 3319 
L 525 3319 
L 525 4141 
L 1084 4478 
L 1084 3319 
L 1650 3319 
L 1650 2881 
L 1084 2881 
L 1084 941 
Q 1084 700 1114 631 
Q 1144 563 1211 522 
Q 1278 481 1403 481 
Q 1497 481 1650 503 
z
" transform="scale(0.015625)"/>
       <path id="ArialMT-79" d="M 397 -1278 
L 334 -750 
Q 519 -800 656 -800 
Q 844 -800 956 -737 
Q 1069 -675 1141 -563 
Q 1194 -478 1313 -144 
Q 1328 -97 1363 -6 
L 103 3319 
L 709 3319 
L 1400 1397 
Q 1534 1031 1641 628 
Q 1738 1016 1872 1384 
L 2581 3319 
L 3144 3319 
L 1881 -56 
Q 1678 -603 1566 -809 
Q 1416 -1088 1222 -1217 
Q 1028 -1347 759 -1347 
Q 597 -1347 397 -1278 
z
" transform="scale(0.015625)"/>
      </defs>
      <use xlink:href="#ArialMT-44"/>
      <use xlink:href="#ArialMT-65" transform="translate(72.216797 0)"/>
      <use xlink:href="#ArialMT-6e" transform="translate(127.832031 0)"/>
      <use xlink:href="#ArialMT-73" transform="translate(183.447266 0)"/>
      <use xlink:href="#ArialMT-69" transform="translate(233.447266 0)"/>
      <use xlink:href="#ArialMT-74" transform="translate(255.664062 0)"/>
      <use xlink:href="#ArialMT-79" transform="translate(283.447266 0)"/>
     </g>
    </g>
   </g>
   <g id="FillBetweenPolyCollection_1">
    <defs>
     <path id="ma2a9823ff5" d="M 182.837225 -47.525248 
L 182.837225 -47.52 
L 185.632871 -47.52 
L 188.428518 -47.52 
L 191.224164 -47.52 
L 194.019811 -47.52 
L 196.815458 -47.52 
L 199.611104 -47.52 
L 202.406751 -47.52 
L 205.202397 -47.52 
L 207.998044 -47.52 
L 210.793691 -47.52 
L 213.589337 -47.52 
L 216.384984 -47.52 
L 219.18063 -47.52 
L 221.976277 -47.52 
L 224.771923 -47.52 
L 227.56757 -47.52 
L 230.363217 -47.52 
L 233.158863 -47.52 
L 235.95451 -47.52 
L 238.750156 -47.52 
L 241.545803 -47.52 
L 244.341449 -47.52 
L 247.137096 -47.52 
L 249.932743 -47.52 
L 252.728389 -47.52 
L 255.524036 -47.52 
L 258.319682 -47.52 
L 261.115329 -47.52 
L 263.910975 -47.52 
L 266.706622 -47.52 
L 269.502269 -47.52 
L 272.297915 -47.52 
L 275.093562 -47.52 
L 277.889208 -47.52 
L 280.684855 -47.52 
L 283.480502 -47.52 
L 286.276148 -47.52 
L 289.071795 -47.52 
L 291.867441 -47.52 
L 294.663088 -47.52 
L 297.458734 -47.52 
L 300.254381 -47.52 
L 303.050028 -47.52 
L 305.845674 -47.52 
L 308.641321 -47.52 
L 311.436967 -47.52 
L 314.232614 -47.52 
L 317.02826 -47.52 
L 319.823907 -47.52 
L 322.619554 -47.52 
L 325.4152 -47.52 
L 328.210847 -47.52 
L 331.006493 -47.52 
L 333.80214 -47.52 
L 336.597787 -47.52 
L 339.393433 -47.52 
L 342.18908 -47.52 
L 344.984726 -47.52 
L 347.780373 -47.52 
L 350.576019 -47.52 
L 353.371666 -47.52 
L 356.167313 -47.52 
L 358.962959 -47.52 
L 361.758606 -47.52 
L 364.554252 -47.52 
L 367.349899 -47.52 
L 370.145545 -47.52 
L 372.941192 -47.52 
L 375.736839 -47.52 
L 378.532485 -47.52 
L 381.328132 -47.52 
L 384.123778 -47.52 
L 386.919425 -47.52 
L 389.715071 -47.52 
L 392.510718 -47.52 
L 395.306365 -47.52 
L 398.102011 -47.52 
L 400.897658 -47.52 
L 403.693304 -47.52 
L 406.488951 -47.52 
L 409.284598 -47.52 
L 412.080244 -47.52 
L 414.875891 -47.52 
L 417.671537 -47.52 
L 420.467184 -47.52 
L 423.26283 -47.52 
L 426.058477 -47.52 
L 428.854124 -47.52 
L 431.64977 -47.52 
L 434.445417 -47.52 
L 437.241063 -47.52 
L 440.03671 -47.52 
L 442.832356 -47.52 
L 445.628003 -47.52 
L 448.42365 -47.52 
L 451.219296 -47.52 
L 454.014943 -47.52 
L 456.810589 -47.52 
L 459.606236 -47.52 
L 462.401882 -47.52 
L 465.197529 -47.52 
L 467.993176 -47.52 
L 470.788822 -47.52 
L 473.584469 -47.52 
L 476.380115 -47.52 
L 479.175762 -47.52 
L 481.971409 -47.52 
L 484.767055 -47.52 
L 487.562702 -47.52 
L 490.358348 -47.52 
L 493.153995 -47.52 
L 495.949641 -47.52 
L 498.745288 -47.52 
L 501.540935 -47.52 
L 504.336581 -47.52 
L 507.132228 -47.52 
L 509.927874 -47.52 
L 512.723521 -47.52 
L 515.519167 -47.52 
L 518.314814 -47.52 
L 521.110461 -47.52 
L 523.906107 -47.52 
L 526.701754 -47.52 
L 529.4974 -47.52 
L 532.293047 -47.52 
L 535.088694 -47.52 
L 537.88434 -47.52 
L 540.679987 -47.52 
L 543.475633 -47.52 
L 546.27128 -47.52 
L 549.066926 -47.52 
L 551.862573 -47.52 
L 554.65822 -47.52 
L 557.453866 -47.52 
L 560.249513 -47.52 
L 563.045159 -47.52 
L 565.840806 -47.52 
L 568.636452 -47.52 
L 571.432099 -47.52 
L 574.227746 -47.52 
L 577.023392 -47.52 
L 579.819039 -47.52 
L 582.614685 -47.52 
L 585.410332 -47.52 
L 588.205978 -47.52 
L 591.001625 -47.52 
L 593.797272 -47.52 
L 596.592918 -47.52 
L 599.388565 -47.52 
L 602.184211 -47.52 
L 604.979858 -47.52 
L 607.775505 -47.52 
L 610.571151 -47.52 
L 613.366798 -47.52 
L 616.162444 -47.52 
L 618.958091 -47.52 
L 621.753737 -47.52 
L 624.549384 -47.52 
L 627.345031 -47.52 
L 630.140677 -47.52 
L 632.936324 -47.52 
L 635.73197 -47.52 
L 638.527617 -47.52 
L 641.323263 -47.52 
L 644.11891 -47.52 
L 646.914557 -47.52 
L 649.710203 -47.52 
L 652.50585 -47.52 
L 655.301496 -47.52 
L 658.097143 -47.52 
L 660.892789 -47.52 
L 663.688436 -47.52 
L 666.484083 -47.52 
L 669.279729 -47.52 
L 672.075376 -47.52 
L 674.871022 -47.52 
L 677.666669 -47.52 
L 680.462316 -47.52 
L 683.257962 -47.52 
L 686.053609 -47.52 
L 688.849255 -47.52 
L 691.644902 -47.52 
L 694.440548 -47.52 
L 697.236195 -47.52 
L 700.031842 -47.52 
L 702.827488 -47.52 
L 705.623135 -47.52 
L 708.418781 -47.52 
L 711.214428 -47.52 
L 714.010074 -47.52 
L 716.805721 -47.52 
L 719.601368 -47.52 
L 722.397014 -47.52 
L 725.192661 -47.52 
L 727.988307 -47.52 
L 730.783954 -47.52 
L 733.579601 -47.52 
L 736.375247 -47.52 
L 739.170894 -47.52 
L 739.170894 -49.661053 
L 739.170894 -49.661053 
L 736.375247 -51.767499 
L 733.579601 -55.483195 
L 730.783954 -61.62879 
L 727.988307 -71.143307 
L 725.192661 -84.900125 
L 722.397014 -103.417345 
L 719.601368 -126.514138 
L 716.805721 -153.021419 
L 714.010074 -180.686883 
L 711.214428 -206.390071 
L 708.418781 -226.692596 
L 705.623135 -238.617972 
L 702.827488 -240.442297 
L 700.031842 -232.24229 
L 697.236195 -216.017571 
L 694.440548 -195.350783 
L 691.644902 -174.720816 
L 688.849255 -158.669346 
L 686.053609 -151.010993 
L 683.257962 -154.203135 
L 680.462316 -168.916953 
L 677.666669 -193.827112 
L 674.871022 -225.664037 
L 672.075376 -259.600797 
L 669.279729 -290.01601 
L 666.484083 -311.563474 
L 663.688436 -320.331188 
L 660.892789 -314.773295 
L 658.097143 -296.122761 
L 655.301496 -268.148764 
L 652.50585 -236.341299 
L 649.710203 -206.778984 
L 646.914557 -184.986073 
L 644.11891 -175.009487 
L 641.323263 -178.815743 
L 638.527617 -196.009732 
L 635.73197 -223.858575 
L 632.936324 -257.639405 
L 630.140677 -291.34877 
L 627.345031 -318.753627 
L 624.549384 -334.632397 
L 621.753737 -335.920148 
L 618.958091 -322.429006 
L 616.162444 -296.91414 
L 613.366798 -264.464288 
L 610.571151 -231.41283 
L 607.775505 -204.084882 
L 604.979858 -187.673941 
L 602.184211 -185.419928 
L 599.388565 -198.132058 
L 596.592918 -224.041477 
L 593.797272 -258.988686 
L 591.001625 -296.989529 
L 588.205978 -331.202145 
L 585.410332 -355.203093 
L 582.614685 -364.32 
L 579.819039 -356.661187 
L 577.023392 -333.517593 
L 574.227746 -298.999736 
L 571.432099 -259.031238 
L 568.636452 -220.024635 
L 565.840806 -187.621246 
L 563.045159 -165.778371 
L 560.249513 -156.310546 
L 557.453866 -158.840733 
L 554.65822 -171.056025 
L 551.862573 -189.18312 
L 549.066926 -208.640599 
L 546.27128 -224.826699 
L 543.475633 -233.947096 
L 540.679987 -233.716908 
L 537.88434 -223.748595 
L 535.088694 -205.501909 
L 532.293047 -181.807522 
L 529.4974 -156.118949 
L 526.701754 -131.726783 
L 523.906107 -111.150706 
L 521.110461 -95.827592 
L 518.314814 -86.09501 
L 515.519167 -81.384849 
L 512.723521 -80.517366 
L 509.927874 -82.010013 
L 507.132228 -84.355596 
L 504.336581 -86.252074 
L 501.540935 -86.772794 
L 498.745288 -85.4613 
L 495.949641 -82.335461 
L 493.153995 -77.80035 
L 490.358348 -72.493474 
L 487.562702 -67.106106 
L 484.767055 -62.228743 
L 481.971409 -58.254849 
L 479.175762 -55.352659 
L 476.380115 -53.492348 
L 473.584469 -52.504153 
L 470.788822 -52.143703 
L 467.993176 -52.1492 
L 465.197529 -52.284338 
L 462.401882 -52.366642 
L 459.606236 -52.282424 
L 456.810589 -51.989192 
L 454.014943 -51.506364 
L 451.219296 -50.896713 
L 448.42365 -50.243072 
L 445.628003 -49.625996 
L 442.832356 -49.107269 
L 440.03671 -48.721685 
L 437.241063 -48.476634 
L 434.445417 -48.357083 
L 431.64977 -48.333054 
L 428.854124 -48.367389 
L 426.058477 -48.422659 
L 423.26283 -48.46679 
L 420.467184 -48.477147 
L 417.671537 -48.442714 
L 414.875891 -48.364034 
L 412.080244 -48.250939 
L 409.284598 -48.118682 
L 406.488951 -47.983566 
L 403.693304 -47.859268 
L 400.897658 -47.754667 
L 398.102011 -47.673399 
L 395.306365 -47.614764 
L 392.510718 -47.575325 
L 389.715071 -47.550524 
L 386.919425 -47.535915 
L 384.123778 -47.527842 
L 381.328132 -47.523652 
L 378.532485 -47.521607 
L 375.736839 -47.520668 
L 372.941192 -47.520263 
L 370.145545 -47.520098 
L 367.349899 -47.520034 
L 364.554252 -47.520011 
L 361.758606 -47.520004 
L 358.962959 -47.520002 
L 356.167313 -47.520004 
L 353.371666 -47.520011 
L 350.576019 -47.520032 
L 347.780373 -47.520089 
L 344.984726 -47.520231 
L 342.18908 -47.520568 
L 339.393433 -47.521322 
L 336.597787 -47.522903 
L 333.80214 -47.526027 
L 331.006493 -47.531826 
L 328.210847 -47.541927 
L 325.4152 -47.558421 
L 322.619554 -47.583624 
L 319.823907 -47.619566 
L 317.02826 -47.667249 
L 314.232614 -47.725798 
L 311.436967 -47.791818 
L 308.641321 -47.859285 
L 305.845674 -47.920219 
L 303.050028 -47.966149 
L 300.254381 -47.990012 
L 297.458734 -47.987937 
L 294.663088 -47.960264 
L 291.867441 -47.91146 
L 289.071795 -47.848934 
L 286.276148 -47.781204 
L 283.480502 -47.716019 
L 280.684855 -47.659016 
L 277.889208 -47.613172 
L 275.093562 -47.579016 
L 272.297915 -47.555334 
L 269.502269 -47.540014 
L 266.706622 -47.530773 
L 263.910975 -47.525636 
L 261.115329 -47.523164 
L 258.319682 -47.522527 
L 255.524036 -47.523486 
L 252.728389 -47.526395 
L 249.932743 -47.532204 
L 247.137096 -47.542465 
L 244.341449 -47.559239 
L 241.545803 -47.584821 
L 238.750156 -47.621211 
L 235.95451 -47.66935 
L 233.158863 -47.728273 
L 230.363217 -47.794479 
L 227.56757 -47.861849 
L 224.771923 -47.922352 
L 221.976277 -47.967535 
L 219.18063 -47.990431 
L 216.384984 -47.987318 
L 213.589337 -47.95871 
L 210.793691 -47.909216 
L 207.998044 -47.846326 
L 205.202397 -47.77856 
L 202.406751 -47.713606 
L 199.611104 -47.657001 
L 196.815458 -47.611617 
L 194.019811 -47.5779 
L 191.224164 -47.55458 
L 188.428518 -47.539518 
L 185.632871 -47.530411 
L 182.837225 -47.525248 
z
" style="stroke: #4c72b0"/>
    </defs>
    <g clip-path="url(#pe68255b4e6)">
     <use xlink:href="#ma2a9823ff5" x="0" y="432" style="fill: #4c72b0; fill-opacity: 0.3; stroke: #4c72b0"/>
    </g>
   </g>
   <g id="FillBetweenPolyCollection_2">
    <defs>
     <path id="mc0bce3fa71" d="M 138.436364 -47.525358 
L 138.436364 -47.52 
L 141.474822 -47.52 
L 144.513281 -47.52 
L 147.551739 -47.52 
L 150.590197 -47.52 
L 153.628656 -47.52 
L 156.667114 -47.52 
L 159.705573 -47.52 
L 162.744031 -47.52 
L 165.78249 -47.52 
L 168.820948 -47.52 
L 171.859407 -47.52 
L 174.897865 -47.52 
L 177.936324 -47.52 
L 180.974782 -47.52 
L 184.01324 -47.52 
L 187.051699 -47.52 
L 190.090157 -47.52 
L 193.128616 -47.52 
L 196.167074 -47.52 
L 199.205533 -47.52 
L 202.243991 -47.52 
L 205.28245 -47.52 
L 208.320908 -47.52 
L 211.359367 -47.52 
L 214.397825 -47.52 
L 217.436283 -47.52 
L 220.474742 -47.52 
L 223.5132 -47.52 
L 226.551659 -47.52 
L 229.590117 -47.52 
L 232.628576 -47.52 
L 235.667034 -47.52 
L 238.705493 -47.52 
L 241.743951 -47.52 
L 244.78241 -47.52 
L 247.820868 -47.52 
L 250.859326 -47.52 
L 253.897785 -47.52 
L 256.936243 -47.52 
L 259.974702 -47.52 
L 263.01316 -47.52 
L 266.051619 -47.52 
L 269.090077 -47.52 
L 272.128536 -47.52 
L 275.166994 -47.52 
L 278.205453 -47.52 
L 281.243911 -47.52 
L 284.282369 -47.52 
L 287.320828 -47.52 
L 290.359286 -47.52 
L 293.397745 -47.52 
L 296.436203 -47.52 
L 299.474662 -47.52 
L 302.51312 -47.52 
L 305.551579 -47.52 
L 308.590037 -47.52 
L 311.628496 -47.52 
L 314.666954 -47.52 
L 317.705412 -47.52 
L 320.743871 -47.52 
L 323.782329 -47.52 
L 326.820788 -47.52 
L 329.859246 -47.52 
L 332.897705 -47.52 
L 335.936163 -47.52 
L 338.974622 -47.52 
L 342.01308 -47.52 
L 345.051539 -47.52 
L 348.089997 -47.52 
L 351.128455 -47.52 
L 354.166914 -47.52 
L 357.205372 -47.52 
L 360.243831 -47.52 
L 363.282289 -47.52 
L 366.320748 -47.52 
L 369.359206 -47.52 
L 372.397665 -47.52 
L 375.436123 -47.52 
L 378.474582 -47.52 
L 381.51304 -47.52 
L 384.551498 -47.52 
L 387.589957 -47.52 
L 390.628415 -47.52 
L 393.666874 -47.52 
L 396.705332 -47.52 
L 399.743791 -47.52 
L 402.782249 -47.52 
L 405.820708 -47.52 
L 408.859166 -47.52 
L 411.897625 -47.52 
L 414.936083 -47.52 
L 417.974541 -47.52 
L 421.013 -47.52 
L 424.051458 -47.52 
L 427.089917 -47.52 
L 430.128375 -47.52 
L 433.166834 -47.52 
L 436.205292 -47.52 
L 439.243751 -47.52 
L 442.282209 -47.52 
L 445.320668 -47.52 
L 448.359126 -47.52 
L 451.397584 -47.52 
L 454.436043 -47.52 
L 457.474501 -47.52 
L 460.51296 -47.52 
L 463.551418 -47.52 
L 466.589877 -47.52 
L 469.628335 -47.52 
L 472.666794 -47.52 
L 475.705252 -47.52 
L 478.743711 -47.52 
L 481.782169 -47.52 
L 484.820627 -47.52 
L 487.859086 -47.52 
L 490.897544 -47.52 
L 493.936003 -47.52 
L 496.974461 -47.52 
L 500.01292 -47.52 
L 503.051378 -47.52 
L 506.089837 -47.52 
L 509.128295 -47.52 
L 512.166754 -47.52 
L 515.205212 -47.52 
L 518.24367 -47.52 
L 521.282129 -47.52 
L 524.320587 -47.52 
L 527.359046 -47.52 
L 530.397504 -47.52 
L 533.435963 -47.52 
L 536.474421 -47.52 
L 539.51288 -47.52 
L 542.551338 -47.52 
L 545.589797 -47.52 
L 548.628255 -47.52 
L 551.666713 -47.52 
L 554.705172 -47.52 
L 557.74363 -47.52 
L 560.782089 -47.52 
L 563.820547 -47.52 
L 566.859006 -47.52 
L 569.897464 -47.52 
L 572.935923 -47.52 
L 575.974381 -47.52 
L 579.01284 -47.52 
L 582.051298 -47.52 
L 585.089756 -47.52 
L 588.128215 -47.52 
L 591.166673 -47.52 
L 594.205132 -47.52 
L 597.24359 -47.52 
L 600.282049 -47.52 
L 603.320507 -47.52 
L 606.358966 -47.52 
L 609.397424 -47.52 
L 612.435883 -47.52 
L 615.474341 -47.52 
L 618.512799 -47.52 
L 621.551258 -47.52 
L 624.589716 -47.52 
L 627.628175 -47.52 
L 630.666633 -47.52 
L 633.705092 -47.52 
L 636.74355 -47.52 
L 639.782009 -47.52 
L 642.820467 -47.52 
L 645.858926 -47.52 
L 648.897384 -47.52 
L 651.935842 -47.52 
L 654.974301 -47.52 
L 658.012759 -47.52 
L 661.051218 -47.52 
L 664.089676 -47.52 
L 667.128135 -47.52 
L 670.166593 -47.52 
L 673.205052 -47.52 
L 676.24351 -47.52 
L 679.281969 -47.52 
L 682.320427 -47.52 
L 685.358885 -47.52 
L 688.397344 -47.52 
L 691.435802 -47.52 
L 694.474261 -47.52 
L 697.512719 -47.52 
L 700.551178 -47.52 
L 703.589636 -47.52 
L 706.628095 -47.52 
L 709.666553 -47.52 
L 712.705012 -47.52 
L 715.74347 -47.52 
L 718.781928 -47.52 
L 721.820387 -47.52 
L 724.858845 -47.52 
L 727.897304 -47.52 
L 730.935762 -47.52 
L 733.974221 -47.52 
L 737.012679 -47.52 
L 740.051138 -47.52 
L 743.089596 -47.52 
L 743.089596 -49.727353 
L 743.089596 -49.727353 
L 740.051138 -51.836677 
L 737.012679 -55.517154 
L 733.974221 -61.55557 
L 730.935762 -70.856425 
L 727.897304 -84.277876 
L 724.858845 -102.370763 
L 721.820387 -125.062545 
L 718.781928 -151.378234 
L 715.74347 -179.322333 
L 712.705012 -206.032723 
L 709.666553 -228.247049 
L 706.628095 -243.010573 
L 703.589636 -248.445534 
L 700.551178 -244.348282 
L 697.512719 -232.413591 
L 694.474261 -215.996086 
L 691.435802 -199.459074 
L 688.397344 -187.273192 
L 685.358885 -183.07534 
L 682.320427 -188.884605 
L 679.281969 -204.624953 
L 676.24351 -228.051069 
L 673.205052 -255.11851 
L 670.166593 -280.768265 
L 667.128135 -300.000607 
L 664.089676 -309.013478 
L 661.051218 -306.12257 
L 658.012759 -292.208039 
L 654.974301 -270.554247 
L 651.935842 -246.12226 
L 648.897384 -224.449785 
L 645.858926 -210.452213 
L 642.820467 -207.388316 
L 639.782009 -216.185212 
L 636.74355 -235.233306 
L 633.705092 -260.687007 
L 630.666633 -287.23488 
L 627.628175 -309.217287 
L 624.589716 -321.874078 
L 621.551258 -322.435123 
L 618.512799 -310.770841 
L 615.474341 -289.421678 
L 612.435883 -262.998275 
L 609.397424 -237.120288 
L 606.358966 -217.171806 
L 603.320507 -207.163823 
L 600.282049 -208.92881 
L 597.24359 -221.776781 
L 594.205132 -242.654663 
L 591.166673 -266.777941 
L 588.128215 -288.630019 
L 585.089756 -303.142191 
L 582.051298 -306.796691 
L 579.01284 -298.379815 
L 575.974381 -279.184847 
L 572.935923 -252.616275 
L 569.897464 -223.322577 
L 566.859006 -196.112009 
L 563.820547 -174.93697 
L 560.782089 -162.170026 
L 557.74363 -158.283248 
L 554.705172 -161.935131 
L 551.666713 -170.396391 
L 548.628255 -180.206074 
L 545.589797 -187.925931 
L 542.551338 -190.845142 
L 539.51288 -187.488869 
L 536.474421 -177.819923 
L 533.435963 -163.097936 
L 530.397504 -145.455062 
L 527.359046 -127.324702 
L 524.320587 -110.887771 
L 521.282129 -97.671303 
L 518.24367 -88.366014 
L 515.205212 -82.856312 
L 512.166754 -80.405783 
L 509.128295 -79.922973 
L 506.089837 -80.238667 
L 503.051378 -80.342897 
L 500.01292 -79.547713 
L 496.974461 -77.558223 
L 493.936003 -74.451564 
L 490.897544 -70.581469 
L 487.859086 -66.441069 
L 484.820627 -62.522816 
L 481.782169 -59.209029 
L 478.743711 -56.712038 
L 475.705252 -55.065651 
L 472.666794 -54.156417 
L 469.628335 -53.777249 
L 466.589877 -53.686664 
L 463.551418 -53.661098 
L 460.51296 -53.532503 
L 457.474501 -53.207534 
L 454.436043 -52.668123 
L 451.397584 -51.956535 
L 448.359126 -51.150863 
L 445.320668 -50.338405 
L 442.282209 -49.593758 
L 439.243751 -48.96592 
L 436.205292 -48.475208 
L 433.166834 -48.117845 
L 430.128375 -47.874488 
L 427.089917 -47.719126 
L 424.051458 -47.625966 
L 421.013 -47.573421 
L 417.974541 -47.545514 
L 414.936083 -47.531543 
L 411.897625 -47.524948 
L 408.859166 -47.522009 
L 405.820708 -47.520773 
L 402.782249 -47.520282 
L 399.743791 -47.520097 
L 396.705332 -47.520032 
L 393.666874 -47.52001 
L 390.628415 -47.520003 
L 387.589957 -47.520001 
L 384.551498 -47.52 
L 381.51304 -47.52 
L 378.474582 -47.52 
L 375.436123 -47.52 
L 372.397665 -47.520001 
L 369.359206 -47.520003 
L 366.320748 -47.520011 
L 363.282289 -47.520036 
L 360.243831 -47.520109 
L 357.205372 -47.520315 
L 354.166914 -47.520862 
L 351.128455 -47.522238 
L 348.089997 -47.525503 
L 345.051539 -47.532819 
L 342.01308 -47.548287 
L 338.974622 -47.579131 
L 335.936163 -47.637099 
L 332.897705 -47.739685 
L 329.859246 -47.910443 
L 326.820788 -48.177386 
L 323.782329 -48.568557 
L 320.743871 -49.104423 
L 317.705412 -49.788077 
L 314.666954 -50.595759 
L 311.628496 -51.471431 
L 308.590037 -52.329105 
L 305.551579 -53.064748 
L 302.51312 -53.576295 
L 299.474662 -53.786715 
L 296.436203 -53.663 
L 293.397745 -53.224648 
L 290.359286 -52.538626 
L 287.320828 -51.702622 
L 284.282369 -50.822327 
L 281.243911 -49.990016 
L 278.205453 -49.270205 
L 275.166994 -48.694879 
L 272.128536 -48.2672 
L 269.090077 -47.970321 
L 266.051619 -47.777442 
L 263.01316 -47.660191 
L 259.974702 -47.593974 
L 256.936243 -47.560342 
L 253.897785 -47.547187 
L 250.859326 -47.547746 
L 247.820868 -47.559182 
L 244.78241 -47.581127 
L 241.743951 -47.614324 
L 238.705493 -47.659367 
L 235.667034 -47.715581 
L 232.628576 -47.780191 
L 229.590117 -47.848014 
L 226.551659 -47.911869 
L 223.5132 -47.963773 
L 220.474742 -47.996678 
L 217.436283 -48.006284 
L 214.397825 -47.992375 
L 211.359367 -47.959197 
L 208.320908 -47.914745 
L 205.28245 -47.869119 
L 202.243991 -47.832399 
L 199.205533 -47.812565 
L 196.167074 -47.813883 
L 193.128616 -47.836071 
L 190.090157 -47.874351 
L 187.051699 -47.920393 
L 184.01324 -47.963995 
L 180.974782 -47.995205 
L 177.936324 -48.00641 
L 174.897865 -47.993886 
L 171.859407 -47.958385 
L 168.820948 -47.904623 
L 165.78249 -47.839861 
L 162.744031 -47.772065 
L 159.705573 -47.708203 
L 156.667114 -47.653131 
L 153.628656 -47.609217 
L 150.590197 -47.576642 
L 147.551739 -47.554067 
L 144.513281 -47.539411 
L 141.474822 -47.530477 
L 138.436364 -47.525358 
z
" style="stroke: #dd8452"/>
    </defs>
    <g clip-path="url(#pe68255b4e6)">
     <use xlink:href="#mc0bce3fa71" x="0" y="432" style="fill: #dd8452; fill-opacity: 0.3; stroke: #dd8452"/>
    </g>
   </g>
   <g id="FillBetweenPolyCollection_3">
    <defs>
     <path id="m921a57bf1a" d="M 300.25131 -47.535484 
L 300.25131 -47.52 
L 302.477199 -47.52 
L 304.703089 -47.52 
L 306.928978 -47.52 
L 309.154867 -47.52 
L 311.380757 -47.52 
L 313.606646 -47.52 
L 315.832535 -47.52 
L 318.058425 -47.52 
L 320.284314 -47.52 
L 322.510203 -47.52 
L 324.736093 -47.52 
L 326.961982 -47.52 
L 329.187871 -47.52 
L 331.41376 -47.52 
L 333.63965 -47.52 
L 335.865539 -47.52 
L 338.091428 -47.52 
L 340.317318 -47.52 
L 342.543207 -47.52 
L 344.769096 -47.52 
L 346.994986 -47.52 
L 349.220875 -47.52 
L 351.446764 -47.52 
L 353.672654 -47.52 
L 355.898543 -47.52 
L 358.124432 -47.52 
L 360.350322 -47.52 
L 362.576211 -47.52 
L 364.8021 -47.52 
L 367.02799 -47.52 
L 369.253879 -47.52 
L 371.479768 -47.52 
L 373.705658 -47.52 
L 375.931547 -47.52 
L 378.157436 -47.52 
L 380.383325 -47.52 
L 382.609215 -47.52 
L 384.835104 -47.52 
L 387.060993 -47.52 
L 389.286883 -47.52 
L 391.512772 -47.52 
L 393.738661 -47.52 
L 395.964551 -47.52 
L 398.19044 -47.52 
L 400.416329 -47.52 
L 402.642219 -47.52 
L 404.868108 -47.52 
L 407.093997 -47.52 
L 409.319887 -47.52 
L 411.545776 -47.52 
L 413.771665 -47.52 
L 415.997555 -47.52 
L 418.223444 -47.52 
L 420.449333 -47.52 
L 422.675223 -47.52 
L 424.901112 -47.52 
L 427.127001 -47.52 
L 429.352891 -47.52 
L 431.57878 -47.52 
L 433.804669 -47.52 
L 436.030558 -47.52 
L 438.256448 -47.52 
L 440.482337 -47.52 
L 442.708226 -47.52 
L 444.934116 -47.52 
L 447.160005 -47.52 
L 449.385894 -47.52 
L 451.611784 -47.52 
L 453.837673 -47.52 
L 456.063562 -47.52 
L 458.289452 -47.52 
L 460.515341 -47.52 
L 462.74123 -47.52 
L 464.96712 -47.52 
L 467.193009 -47.52 
L 469.418898 -47.52 
L 471.644788 -47.52 
L 473.870677 -47.52 
L 476.096566 -47.52 
L 478.322456 -47.52 
L 480.548345 -47.52 
L 482.774234 -47.52 
L 485.000123 -47.52 
L 487.226013 -47.52 
L 489.451902 -47.52 
L 491.677791 -47.52 
L 493.903681 -47.52 
L 496.12957 -47.52 
L 498.355459 -47.52 
L 500.581349 -47.52 
L 502.807238 -47.52 
L 505.033127 -47.52 
L 507.259017 -47.52 
L 509.484906 -47.52 
L 511.710795 -47.52 
L 513.936685 -47.52 
L 516.162574 -47.52 
L 518.388463 -47.52 
L 520.614353 -47.52 
L 522.840242 -47.52 
L 525.066131 -47.52 
L 527.292021 -47.52 
L 529.51791 -47.52 
L 531.743799 -47.52 
L 533.969688 -47.52 
L 536.195578 -47.52 
L 538.421467 -47.52 
L 540.647356 -47.52 
L 542.873246 -47.52 
L 545.099135 -47.52 
L 547.325024 -47.52 
L 549.550914 -47.52 
L 551.776803 -47.52 
L 554.002692 -47.52 
L 556.228582 -47.52 
L 558.454471 -47.52 
L 560.68036 -47.52 
L 562.90625 -47.52 
L 565.132139 -47.52 
L 567.358028 -47.52 
L 569.583918 -47.52 
L 571.809807 -47.52 
L 574.035696 -47.52 
L 576.261586 -47.52 
L 578.487475 -47.52 
L 580.713364 -47.52 
L 582.939253 -47.52 
L 585.165143 -47.52 
L 587.391032 -47.52 
L 589.616921 -47.52 
L 591.842811 -47.52 
L 594.0687 -47.52 
L 596.294589 -47.52 
L 598.520479 -47.52 
L 600.746368 -47.52 
L 602.972257 -47.52 
L 605.198147 -47.52 
L 607.424036 -47.52 
L 609.649925 -47.52 
L 611.875815 -47.52 
L 614.101704 -47.52 
L 616.327593 -47.52 
L 618.553483 -47.52 
L 620.779372 -47.52 
L 623.005261 -47.52 
L 625.231151 -47.52 
L 627.45704 -47.52 
L 629.682929 -47.52 
L 631.908818 -47.52 
L 634.134708 -47.52 
L 636.360597 -47.52 
L 638.586486 -47.52 
L 640.812376 -47.52 
L 643.038265 -47.52 
L 645.264154 -47.52 
L 647.490044 -47.52 
L 649.715933 -47.52 
L 651.941822 -47.52 
L 654.167712 -47.52 
L 656.393601 -47.52 
L 658.61949 -47.52 
L 660.84538 -47.52 
L 663.071269 -47.52 
L 665.297158 -47.52 
L 667.523048 -47.52 
L 669.748937 -47.52 
L 671.974826 -47.52 
L 674.200716 -47.52 
L 676.426605 -47.52 
L 678.652494 -47.52 
L 680.878383 -47.52 
L 683.104273 -47.52 
L 685.330162 -47.52 
L 687.556051 -47.52 
L 689.781941 -47.52 
L 692.00783 -47.52 
L 694.233719 -47.52 
L 696.459609 -47.52 
L 698.685498 -47.52 
L 700.911387 -47.52 
L 703.137277 -47.52 
L 705.363166 -47.52 
L 707.589055 -47.52 
L 709.814945 -47.52 
L 712.040834 -47.52 
L 714.266723 -47.52 
L 716.492613 -47.52 
L 718.718502 -47.52 
L 720.944391 -47.52 
L 723.170281 -47.52 
L 725.39617 -47.52 
L 727.622059 -47.52 
L 729.847949 -47.52 
L 732.073838 -47.52 
L 734.299727 -47.52 
L 736.525616 -47.52 
L 738.751506 -47.52 
L 740.977395 -47.52 
L 743.203284 -47.52 
L 743.203284 -49.834852 
L 743.203284 -49.834852 
L 740.977395 -51.3184 
L 738.751506 -53.575413 
L 736.525616 -56.898915 
L 734.299727 -61.633266 
L 732.073838 -68.153312 
L 729.847949 -76.827426 
L 727.622059 -87.96408 
L 725.39617 -101.745431 
L 723.170281 -118.155905 
L 720.944391 -136.918187 
L 718.718502 -157.451753 
L 716.492613 -178.868965 
L 714.266723 -200.019815 
L 712.040834 -219.588725 
L 709.814945 -236.236636 
L 707.589055 -248.771103 
L 705.363166 -256.318942 
L 703.137277 -258.472559 
L 700.911387 -255.383591 
L 698.685498 -247.785586 
L 696.459609 -236.939277 
L 694.233719 -224.506633 
L 692.00783 -212.370563 
L 689.781941 -202.423807 
L 687.556051 -196.352772 
L 685.330162 -195.440552 
L 683.104273 -200.4097 
L 680.878383 -211.32103 
L 678.652494 -227.540394 
L 676.426605 -247.780728 
L 674.200716 -270.220856 
L 671.974826 -292.694587 
L 669.748937 -312.9339 
L 667.523048 -328.839797 
L 665.297158 -338.746384 
L 663.071269 -341.64063 
L 660.84538 -337.304055 
L 658.61949 -326.353304 
L 656.393601 -310.172338 
L 654.167712 -290.74619 
L 651.941822 -270.421044 
L 649.715933 -251.624668 
L 647.490044 -236.583837 
L 645.264154 -227.071961 
L 643.038265 -224.212956 
L 640.812376 -228.359009 
L 638.586486 -239.05198 
L 636.360597 -255.071435 
L 634.134708 -274.56591 
L 631.908818 -295.257015 
L 629.682929 -314.697818 
L 627.45704 -330.558362 
L 625.231151 -340.904129 
L 623.005261 -344.430405 
L 620.779372 -340.618878 
L 618.553483 -329.79296 
L 616.327593 -313.063803 
L 614.101704 -292.176439 
L 611.875815 -269.280951 
L 609.649925 -246.663679 
L 607.424036 -226.476333 
L 605.198147 -210.497039 
L 602.972257 -199.948719 
L 600.746368 -195.389802 
L 598.520479 -196.682531 
L 596.294589 -203.036435 
L 594.0687 -213.11887 
L 591.842811 -225.220108 
L 589.616921 -237.456249 
L 587.391032 -247.989043 
L 585.165143 -255.238301 
L 582.939253 -258.061283 
L 580.713364 -255.875917 
L 578.487475 -248.711371 
L 576.261586 -237.179936 
L 574.035696 -222.376176 
L 571.809807 -205.720434 
L 569.583918 -188.771293 
L 567.358028 -173.034222 
L 565.132139 -159.791181 
L 562.90625 -149.96982 
L 560.68036 -144.063108 
L 558.454471 -142.102675 
L 556.228582 -143.683222 
L 554.002692 -148.03124 
L 551.776803 -154.108602 
L 549.550914 -160.739595 
L 547.325024 -166.748112 
L 545.099135 -171.090326 
L 542.873246 -172.967691 
L 540.647356 -171.906594 
L 538.421467 -167.794771 
L 536.195578 -160.870653 
L 533.969688 -151.668955 
L 531.743799 -140.932672 
L 529.51791 -129.506415 
L 527.292021 -118.227884 
L 525.066131 -107.832719 
L 522.840242 -98.883894 
L 520.614353 -91.731352 
L 518.388463 -86.50216 
L 516.162574 -83.117248 
L 513.936685 -81.328218 
L 511.710795 -80.766864 
L 509.484906 -81.000279 
L 507.259017 -81.585375 
L 505.033127 -82.117648 
L 502.807238 -82.270138 
L 500.581349 -81.819601 
L 498.355459 -80.658219 
L 496.12957 -78.790743 
L 493.903681 -76.318662 
L 491.677791 -73.414589 
L 489.451902 -70.291181 
L 487.226013 -67.169324 
L 485.000123 -64.249875 
L 482.774234 -61.692155 
L 480.548345 -59.600893 
L 478.322456 -58.021798 
L 476.096566 -56.944731 
L 473.870677 -56.312685 
L 471.644788 -56.034504 
L 469.418898 -55.999319 
L 467.193009 -56.09099 
L 464.96712 -56.201138 
L 462.74123 -56.239681 
L 460.515341 -56.142118 
L 458.289452 -55.873114 
L 456.063562 -55.426335 
L 453.837673 -54.820922 
L 451.611784 -54.095354 
L 449.385894 -53.299785 
L 447.160005 -52.488055 
L 444.934116 -51.710477 
L 442.708226 -51.008265 
L 440.482337 -50.410069 
L 438.256448 -49.93068 
L 436.030558 -49.571665 
L 433.804669 -49.323427 
L 431.57878 -49.168168 
L 429.352891 -49.083192 
L 427.127001 -49.044144 
L 424.901112 -49.02784 
L 422.675223 -49.014504 
L 420.449333 -48.98928 
L 418.223444 -48.942995 
L 415.997555 -48.872192 
L 413.771665 -48.77853 
L 411.545776 -48.66769 
L 409.319887 -48.547974 
L 407.093997 -48.428805 
L 404.868108 -48.319306 
L 402.642219 -48.227122 
L 400.416329 -48.15758 
L 398.19044 -48.11323 
L 395.964551 -48.093761 
L 393.738661 -48.096248 
L 391.512772 -48.115666 
L 389.286883 -48.145604 
L 387.060993 -48.179092 
L 384.835104 -48.209456 
L 382.609215 -48.231126 
L 380.383325 -48.240303 
L 378.157436 -48.235412 
L 375.931547 -48.21729 
L 373.705658 -48.189086 
L 371.479768 -48.155886 
L 369.253879 -48.124102 
L 367.02799 -48.100702 
L 364.8021 -48.092356 
L 362.576211 -48.104587 
L 360.350322 -48.141011 
L 358.124432 -48.202737 
L 355.898543 -48.288012 
L 353.672654 -48.392157 
L 351.446764 -48.507847 
L 349.220875 -48.625734 
L 346.994986 -48.735381 
L 344.769096 -48.826409 
L 342.543207 -48.889704 
L 340.317318 -48.918514 
L 338.091428 -48.909263 
L 335.865539 -48.861936 
L 333.63965 -48.77997 
L 331.41376 -48.669693 
L 329.187871 -48.5394 
L 326.961982 -48.398249 
L 324.736093 -48.255161 
L 322.510203 -48.1179 
L 320.284314 -47.992443 
L 318.058425 -47.882695 
L 315.832535 -47.790521 
L 313.606646 -47.716033 
L 311.380757 -47.658014 
L 309.154867 -47.614403 
L 306.928978 -47.582735 
L 304.703089 -47.560504 
L 302.477199 -47.545407 
L 300.25131 -47.535484 
z
" style="stroke: #55a868"/>
    </defs>
    <g clip-path="url(#pe68255b4e6)">
     <use xlink:href="#m921a57bf1a" x="0" y="432" style="fill: #55a868; fill-opacity: 0.3; stroke: #55a868"/>
    </g>
   </g>
   <g id="FillBetweenPolyCollection_4">
    <defs>
     <path id="me6127241b8" d="M 336.773117 -47.528728 
L 336.773117 -47.52 
L 338.835381 -47.52 
L 340.897645 -47.52 
L 342.959909 -47.52 
L 345.022172 -47.52 
L 347.084436 -47.52 
L 349.1467 -47.52 
L 351.208964 -47.52 
L 353.271228 -47.52 
L 355.333492 -47.52 
L 357.395756 -47.52 
L 359.45802 -47.52 
L 361.520284 -47.52 
L 363.582548 -47.52 
L 365.644812 -47.52 
L 367.707076 -47.52 
L 369.769339 -47.52 
L 371.831603 -47.52 
L 373.893867 -47.52 
L 375.956131 -47.52 
L 378.018395 -47.52 
L 380.080659 -47.52 
L 382.142923 -47.52 
L 384.205187 -47.52 
L 386.267451 -47.52 
L 388.329715 -47.52 
L 390.391979 -47.52 
L 392.454243 -47.52 
L 394.516506 -47.52 
L 396.57877 -47.52 
L 398.641034 -47.52 
L 400.703298 -47.52 
L 402.765562 -47.52 
L 404.827826 -47.52 
L 406.89009 -47.52 
L 408.952354 -47.52 
L 411.014618 -47.52 
L 413.076882 -47.52 
L 415.139146 -47.52 
L 417.20141 -47.52 
L 419.263673 -47.52 
L 421.325937 -47.52 
L 423.388201 -47.52 
L 425.450465 -47.52 
L 427.512729 -47.52 
L 429.574993 -47.52 
L 431.637257 -47.52 
L 433.699521 -47.52 
L 435.761785 -47.52 
L 437.824049 -47.52 
L 439.886313 -47.52 
L 441.948577 -47.52 
L 444.01084 -47.52 
L 446.073104 -47.52 
L 448.135368 -47.52 
L 450.197632 -47.52 
L 452.259896 -47.52 
L 454.32216 -47.52 
L 456.384424 -47.52 
L 458.446688 -47.52 
L 460.508952 -47.52 
L 462.571216 -47.52 
L 464.63348 -47.52 
L 466.695744 -47.52 
L 468.758007 -47.52 
L 470.820271 -47.52 
L 472.882535 -47.52 
L 474.944799 -47.52 
L 477.007063 -47.52 
L 479.069327 -47.52 
L 481.131591 -47.52 
L 483.193855 -47.52 
L 485.256119 -47.52 
L 487.318383 -47.52 
L 489.380647 -47.52 
L 491.442911 -47.52 
L 493.505174 -47.52 
L 495.567438 -47.52 
L 497.629702 -47.52 
L 499.691966 -47.52 
L 501.75423 -47.52 
L 503.816494 -47.52 
L 505.878758 -47.52 
L 507.941022 -47.52 
L 510.003286 -47.52 
L 512.06555 -47.52 
L 514.127814 -47.52 
L 516.190078 -47.52 
L 518.252342 -47.52 
L 520.314605 -47.52 
L 522.376869 -47.52 
L 524.439133 -47.52 
L 526.501397 -47.52 
L 528.563661 -47.52 
L 530.625925 -47.52 
L 532.688189 -47.52 
L 534.750453 -47.52 
L 536.812717 -47.52 
L 538.874981 -47.52 
L 540.937245 -47.52 
L 542.999509 -47.52 
L 545.061772 -47.52 
L 547.124036 -47.52 
L 549.1863 -47.52 
L 551.248564 -47.52 
L 553.310828 -47.52 
L 555.373092 -47.52 
L 557.435356 -47.52 
L 559.49762 -47.52 
L 561.559884 -47.52 
L 563.622148 -47.52 
L 565.684412 -47.52 
L 567.746676 -47.52 
L 569.808939 -47.52 
L 571.871203 -47.52 
L 573.933467 -47.52 
L 575.995731 -47.52 
L 578.057995 -47.52 
L 580.120259 -47.52 
L 582.182523 -47.52 
L 584.244787 -47.52 
L 586.307051 -47.52 
L 588.369315 -47.52 
L 590.431579 -47.52 
L 592.493843 -47.52 
L 594.556106 -47.52 
L 596.61837 -47.52 
L 598.680634 -47.52 
L 600.742898 -47.52 
L 602.805162 -47.52 
L 604.867426 -47.52 
L 606.92969 -47.52 
L 608.991954 -47.52 
L 611.054218 -47.52 
L 613.116482 -47.52 
L 615.178746 -47.52 
L 617.24101 -47.52 
L 619.303273 -47.52 
L 621.365537 -47.52 
L 623.427801 -47.52 
L 625.490065 -47.52 
L 627.552329 -47.52 
L 629.614593 -47.52 
L 631.676857 -47.52 
L 633.739121 -47.52 
L 635.801385 -47.52 
L 637.863649 -47.52 
L 639.925913 -47.52 
L 641.988177 -47.52 
L 644.05044 -47.52 
L 646.112704 -47.52 
L 648.174968 -47.52 
L 650.237232 -47.52 
L 652.299496 -47.52 
L 654.36176 -47.52 
L 656.424024 -47.52 
L 658.486288 -47.52 
L 660.548552 -47.52 
L 662.610816 -47.52 
L 664.67308 -47.52 
L 666.735344 -47.52 
L 668.797607 -47.52 
L 670.859871 -47.52 
L 672.922135 -47.52 
L 674.984399 -47.52 
L 677.046663 -47.52 
L 679.108927 -47.52 
L 681.171191 -47.52 
L 683.233455 -47.52 
L 685.295719 -47.52 
L 687.357983 -47.52 
L 689.420247 -47.52 
L 691.482511 -47.52 
L 693.544775 -47.52 
L 695.607038 -47.52 
L 697.669302 -47.52 
L 699.731566 -47.52 
L 701.79383 -47.52 
L 703.856094 -47.52 
L 705.918358 -47.52 
L 707.980622 -47.52 
L 710.042886 -47.52 
L 712.10515 -47.52 
L 714.167414 -47.52 
L 716.229678 -47.52 
L 718.291942 -47.52 
L 720.354205 -47.52 
L 722.416469 -47.52 
L 724.478733 -47.52 
L 726.540997 -47.52 
L 728.603261 -47.52 
L 730.665525 -47.52 
L 732.727789 -47.52 
L 734.790053 -47.52 
L 736.852317 -47.52 
L 738.914581 -47.52 
L 740.976845 -47.52 
L 743.039109 -47.52 
L 745.101372 -47.52 
L 747.163636 -47.52 
L 747.163636 -49.518673 
L 747.163636 -49.518673 
L 745.101372 -50.558121 
L 743.039109 -52.044692 
L 740.976845 -54.12228 
L 738.914581 -56.958873 
L 736.852317 -60.74112 
L 734.790053 -65.664255 
L 732.727789 -71.916876 
L 730.665525 -79.660711 
L 728.603261 -89.006416 
L 726.540997 -99.987461 
L 724.478733 -112.535153 
L 722.416469 -126.458628 
L 720.354205 -141.433923 
L 718.291942 -157.005892 
L 716.229678 -172.605636 
L 714.167414 -187.584316 
L 712.10515 -201.261913 
L 710.042886 -212.987087 
L 707.980622 -222.202056 
L 705.918358 -228.504978 
L 703.856094 -231.701814 
L 701.79383 -231.840415 
L 699.731566 -229.221359 
L 697.669302 -224.382803 
L 695.607038 -218.059729 
L 693.544775 -211.121063 
L 691.482511 -204.490774 
L 689.420247 -199.060915 
L 687.357983 -195.605436 
L 685.295719 -194.703544 
L 683.233455 -196.680452 
L 681.171191 -201.571738 
L 679.108927 -209.11538 
L 677.046663 -218.773031 
L 674.984399 -229.779351 
L 672.922135 -241.215444 
L 670.859871 -252.099851 
L 668.797607 -261.488405 
L 666.735344 -268.572843 
L 664.67308 -272.767739 
L 662.610816 -273.776124 
L 660.548552 -271.626198 
L 658.486288 -266.674579 
L 656.424024 -259.57517 
L 654.36176 -251.216543 
L 652.299496 -242.634158 
L 650.237232 -234.906373 
L 648.174968 -229.044801 
L 646.112704 -225.890032 
L 644.05044 -226.02304 
L 641.988177 -229.701101 
L 639.925913 -236.824704 
L 637.863649 -246.93914 
L 635.801385 -259.271281 
L 633.739121 -272.79872 
L 631.676857 -286.345171 
L 629.614593 -298.693104 
L 627.552329 -308.702416 
L 625.490065 -315.422775 
L 623.427801 -318.187559 
L 621.365537 -316.679049 
L 619.303273 -310.957635 
L 617.24101 -301.451957 
L 615.178746 -288.911462 
L 613.116482 -274.327215 
L 611.054218 -258.830307 
L 608.991954 -243.579387 
L 606.92969 -229.649507 
L 604.867426 -217.933657 
L 602.805162 -209.066305 
L 600.742898 -203.375482 
L 598.680634 -200.866665 
L 596.61837 -201.238554 
L 594.556106 -203.927841 
L 592.493843 -208.177598 
L 590.431579 -213.121976 
L 588.369315 -217.878619 
L 586.307051 -221.639654 
L 584.244787 -223.752373 
L 582.182523 -223.781809 
L 580.120259 -221.549283 
L 578.057995 -217.14354 
L 575.995731 -210.903943 
L 573.933467 -203.378186 
L 571.871203 -195.259531 
L 569.808939 -187.310578 
L 567.746676 -180.281681 
L 565.684412 -174.832321 
L 563.622148 -171.463142 
L 561.559884 -170.464982 
L 559.49762 -171.889448 
L 557.435356 -175.543465 
L 555.373092 -181.007991 
L 553.310828 -187.678882 
L 551.248564 -194.825826 
L 549.1863 -201.663494 
L 547.124036 -207.427758 
L 545.061772 -211.449193 
L 542.999509 -213.216225 
L 540.937245 -212.421335 
L 538.874981 -208.985615 
L 536.812717 -203.059452 
L 534.750453 -194.999937 
L 532.688189 -185.328289 
L 530.625925 -174.672808 
L 528.563661 -163.70424 
L 526.501397 -153.070912 
L 524.439133 -143.34044 
L 522.376869 -134.953532 
L 520.314605 -128.193572 
L 518.252342 -123.173671 
L 516.190078 -119.840902 
L 514.127814 -117.995775 
L 512.06555 -117.323763 
L 510.003286 -117.43485 
L 507.941022 -117.906698 
L 505.878758 -118.327092 
L 503.816494 -118.33165 
L 501.75423 -117.633588 
L 499.691966 -116.043241 
L 497.629702 -113.476272 
L 495.567438 -109.950723 
L 493.505174 -105.57426 
L 491.442911 -100.523952 
L 489.380647 -95.021549 
L 487.318383 -89.307465 
L 485.256119 -83.616468 
L 483.193855 -78.157488 
L 481.131591 -73.099138 
L 479.069327 -68.56161 
L 477.007063 -64.614727 
L 474.944799 -61.281225 
L 472.882535 -58.54389 
L 470.820271 -56.354997 
L 468.758007 -54.646548 
L 466.695744 -53.340074 
L 464.63348 -52.355092 
L 462.571216 -51.61568 
L 460.508952 -51.055002 
L 458.446688 -50.617844 
L 456.384424 -50.261456 
L 454.32216 -49.955054 
L 452.259896 -49.678404 
L 450.197632 -49.419869 
L 448.135368 -49.174264 
L 446.073104 -48.940768 
L 444.01084 -48.721093 
L 441.948577 -48.518008 
L 439.886313 -48.334267 
L 437.824049 -48.17193 
L 435.761785 -48.032031 
L 433.699521 -47.914509 
L 431.637257 -47.818338 
L 429.574993 -47.741766 
L 427.512729 -47.6826 
L 425.450465 -47.63849 
L 423.388201 -47.607164 
L 421.325937 -47.586617 
L 419.263673 -47.575228 
L 417.20141 -47.57182 
L 415.139146 -47.575659 
L 413.076882 -47.586414 
L 411.014618 -47.604071 
L 408.952354 -47.628822 
L 406.89009 -47.660929 
L 404.827826 -47.70057 
L 402.765562 -47.747693 
L 400.703298 -47.801871 
L 398.641034 -47.862188 
L 396.57877 -47.927171 
L 394.516506 -47.994775 
L 392.454243 -48.062444 
L 390.391979 -48.127237 
L 388.329715 -48.186021 
L 386.267451 -48.235717 
L 384.205187 -48.273557 
L 382.142923 -48.297341 
L 380.080659 -48.305647 
L 378.018395 -48.297971 
L 375.956131 -48.274779 
L 373.893867 -48.237458 
L 371.831603 -48.188179 
L 369.769339 -48.12969 
L 367.707076 -48.065062 
L 365.644812 -47.997422 
L 363.582548 -47.929713 
L 361.520284 -47.86449 
L 359.45802 -47.803787 
L 357.395756 -47.74905 
L 355.333492 -47.701129 
L 353.271228 -47.660334 
L 351.208964 -47.626527 
L 349.1467 -47.599228 
L 347.084436 -47.577732 
L 345.022172 -47.561217 
L 342.959909 -47.54883 
L 340.897645 -47.539758 
L 338.835381 -47.533267 
L 336.773117 -47.528728 
z
" style="stroke: #c44e52"/>
    </defs>
    <g clip-path="url(#pe68255b4e6)">
     <use xlink:href="#me6127241b8" x="0" y="432" style="fill: #c44e52; fill-opacity: 0.3; stroke: #c44e52"/>
    </g>
   </g>
   <g id="patch_3">
    <path d="M 108 384.48 
L 108 51.84 
" style="fill: none; stroke: #cccccc; stroke-width: 1.25; stroke-linejoin: miter; stroke-linecap: square"/>
   </g>
   <g id="patch_4">
    <path d="M 777.6 384.48 
L 777.6 51.84 
" style="fill: none; stroke: #cccccc; stroke-width: 1.25; stroke-linejoin: miter; stroke-linecap: square"/>
   </g>
   <g id="patch_5">
    <path d="M 108 384.48 
L 777.6 384.48 
" style="fill: none; stroke: #cccccc; stroke-width: 1.25; stroke-linejoin: miter; stroke-linecap: square"/>
   </g>
   <g id="patch_6">
    <path d="M 108 51.84 
L 777.6 51.84 
" style="fill: none; stroke: #cccccc; stroke-width: 1.25; stroke-linejoin: miter; stroke-linecap: square"/>
   </g>
   <g id="text_19">
    <!-- KDE of Year Added by Top Genres -->
    <g style="fill: #262626" transform="translate(350.8425 45.84) scale(0.12 -0.12)">
     <defs>
      <path id="ArialMT-4b" d="M 469 0 
L 469 4581 
L 1075 4581 
L 1075 2309 
L 3350 4581 
L 4172 4581 
L 2250 2725 
L 4256 0 
L 3456 0 
L 1825 2319 
L 1075 1588 
L 1075 0 
L 469 0 
z
" transform="scale(0.015625)"/>
      <path id="ArialMT-45" d="M 506 0 
L 506 4581 
L 3819 4581 
L 3819 4041 
L 1113 4041 
L 1113 2638 
L 3647 2638 
L 3647 2100 
L 1113 2100 
L 1113 541 
L 3925 541 
L 3925 0 
L 506 0 
z
" transform="scale(0.015625)"/>
      <path id="ArialMT-6f" d="M 213 1659 
Q 213 2581 725 3025 
Q 1153 3394 1769 3394 
Q 2453 3394 2887 2945 
Q 3322 2497 3322 1706 
Q 3322 1066 3130 698 
Q 2938 331 2570 128 
Q 2203 -75 1769 -75 
Q 1072 -75 642 372 
Q 213 819 213 1659 
z
M 791 1659 
Q 791 1022 1069 705 
Q 1347 388 1769 388 
Q 2188 388 2466 706 
Q 2744 1025 2744 1678 
Q 2744 2294 2464 2611 
Q 2184 2928 1769 2928 
Q 1347 2928 1069 2612 
Q 791 2297 791 1659 
z
" transform="scale(0.015625)"/>
      <path id="ArialMT-66" d="M 556 0 
L 556 2881 
L 59 2881 
L 59 3319 
L 556 3319 
L 556 3672 
Q 556 4006 616 4169 
Q 697 4388 901 4523 
Q 1106 4659 1475 4659 
Q 1713 4659 2000 4603 
L 1916 4113 
Q 1741 4144 1584 4144 
Q 1328 4144 1222 4034 
Q 1116 3925 1116 3625 
L 1116 3319 
L 1763 3319 
L 1763 2881 
L 1116 2881 
L 1116 0 
L 556 0 
z
" transform="scale(0.015625)"/>
      <path id="ArialMT-62" d="M 941 0 
L 419 0 
L 419 4581 
L 981 4581 
L 981 2947 
Q 1338 3394 1891 3394 
Q 2197 3394 2470 3270 
Q 2744 3147 2920 2923 
Q 3097 2700 3197 2384 
Q 3297 2069 3297 1709 
Q 3297 856 2875 390 
Q 2453 -75 1863 -75 
Q 1275 -75 941 416 
L 941 0 
z
M 934 1684 
Q 934 1088 1097 822 
Q 1363 388 1816 388 
Q 2184 388 2453 708 
Q 2722 1028 2722 1663 
Q 2722 2313 2464 2622 
Q 2206 2931 1841 2931 
Q 1472 2931 1203 2611 
Q 934 2291 934 1684 
z
" transform="scale(0.015625)"/>
      <path id="ArialMT-54" d="M 1659 0 
L 1659 4041 
L 150 4041 
L 150 4581 
L 3781 4581 
L 3781 4041 
L 2266 4041 
L 2266 0 
L 1659 0 
z
" transform="scale(0.015625)"/>
      <path id="ArialMT-70" d="M 422 -1272 
L 422 3319 
L 934 3319 
L 934 2888 
Q 1116 3141 1344 3267 
Q 1572 3394 1897 3394 
Q 2322 3394 2647 3175 
Q 2972 2956 3137 2557 
Q 3303 2159 3303 1684 
Q 3303 1175 3120 767 
Q 2938 359 2589 142 
Q 2241 -75 1856 -75 
Q 1575 -75 1351 44 
Q 1128 163 984 344 
L 984 -1272 
L 422 -1272 
z
M 931 1641 
Q 931 1000 1190 694 
Q 1450 388 1819 388 
Q 2194 388 2461 705 
Q 2728 1022 2728 1688 
Q 2728 2322 2467 2637 
Q 2206 2953 1844 2953 
Q 1484 2953 1207 2617 
Q 931 2281 931 1641 
z
" transform="scale(0.015625)"/>
      <path id="ArialMT-47" d="M 2638 1797 
L 2638 2334 
L 4578 2338 
L 4578 638 
Q 4131 281 3656 101 
Q 3181 -78 2681 -78 
Q 2006 -78 1454 211 
Q 903 500 622 1047 
Q 341 1594 341 2269 
Q 341 2938 620 3517 
Q 900 4097 1425 4378 
Q 1950 4659 2634 4659 
Q 3131 4659 3532 4498 
Q 3934 4338 4162 4050 
Q 4391 3763 4509 3300 
L 3963 3150 
Q 3859 3500 3706 3700 
Q 3553 3900 3268 4020 
Q 2984 4141 2638 4141 
Q 2222 4141 1919 4014 
Q 1616 3888 1430 3681 
Q 1244 3475 1141 3228 
Q 966 2803 966 2306 
Q 966 1694 1177 1281 
Q 1388 869 1791 669 
Q 2194 469 2647 469 
Q 3041 469 3416 620 
Q 3791 772 3984 944 
L 3984 1797 
L 2638 1797 
z
" transform="scale(0.015625)"/>
     </defs>
     <use xlink:href="#ArialMT-4b"/>
     <use xlink:href="#ArialMT-44" transform="translate(66.699219 0)"/>
     <use xlink:href="#ArialMT-45" transform="translate(138.916016 0)"/>
     <use xlink:href="#ArialMT-20" transform="translate(205.615234 0)"/>
     <use xlink:href="#ArialMT-6f" transform="translate(233.398438 0)"/>
     <use xlink:href="#ArialMT-66" transform="translate(289.013672 0)"/>
     <use xlink:href="#ArialMT-20" transform="translate(316.796875 0)"/>
     <use xlink:href="#ArialMT-59" transform="translate(342.830078 0)"/>
     <use xlink:href="#ArialMT-65" transform="translate(400.404297 0)"/>
     <use xlink:href="#ArialMT-61" transform="translate(456.019531 0)"/>
     <use xlink:href="#ArialMT-72" transform="translate(511.634766 0)"/>
     <use xlink:href="#ArialMT-20" transform="translate(544.935547 0)"/>
     <use xlink:href="#ArialMT-41" transform="translate(567.21875 0)"/>
     <use xlink:href="#ArialMT-64" transform="translate(633.917969 0)"/>
     <use xlink:href="#ArialMT-64" transform="translate(689.533203 0)"/>
     <use xlink:href="#ArialMT-65" transform="translate(745.148438 0)"/>
     <use xlink:href="#ArialMT-64" transform="translate(800.763672 0)"/>
     <use xlink:href="#ArialMT-20" transform="translate(856.378906 0)"/>
     <use xlink:href="#ArialMT-62" transform="translate(884.162109 0)"/>
     <use xlink:href="#ArialMT-79" transform="translate(939.777344 0)"/>
     <use xlink:href="#ArialMT-20" transform="translate(989.777344 0)"/>
     <use xlink:href="#ArialMT-54" transform="translate(1015.810547 0)"/>
     <use xlink:href="#ArialMT-6f" transform="translate(1065.769531 0)"/>
     <use xlink:href="#ArialMT-70" transform="translate(1121.384766 0)"/>
     <use xlink:href="#ArialMT-20" transform="translate(1177 0)"/>
     <use xlink:href="#ArialMT-47" transform="translate(1204.783203 0)"/>
     <use xlink:href="#ArialMT-65" transform="translate(1282.566406 0)"/>
     <use xlink:href="#ArialMT-6e" transform="translate(1338.181641 0)"/>
     <use xlink:href="#ArialMT-72" transform="translate(1393.796875 0)"/>
     <use xlink:href="#ArialMT-65" transform="translate(1427.097656 0)"/>
     <use xlink:href="#ArialMT-73" transform="translate(1482.712891 0)"/>
    </g>
   </g>
   <g id="legend_1">
    <g id="patch_7">
     <path d="M 115.7 139.35375 
L 264.428594 139.35375 
Q 266.628594 139.35375 266.628594 137.15375 
L 266.628594 59.54 
Q 266.628594 57.34 264.428594 57.34 
L 115.7 57.34 
Q 113.5 57.34 113.5 59.54 
L 113.5 137.15375 
Q 113.5 139.35375 115.7 139.35375 
z
" style="fill: #ffffff; opacity: 0.8; stroke: #cccccc; stroke-linejoin: miter"/>
    </g>
    <g id="text_20">
     <!-- Genre -->
     <g style="fill: #262626" transform="translate(173.389922 70.329375) scale(0.12 -0.12)">
      <use xlink:href="#ArialMT-47"/>
      <use xlink:href="#ArialMT-65" transform="translate(77.783203 0)"/>
      <use xlink:href="#ArialMT-6e" transform="translate(133.398438 0)"/>
      <use xlink:href="#ArialMT-72" transform="translate(189.013672 0)"/>
      <use xlink:href="#ArialMT-65" transform="translate(222.314453 0)"/>
     </g>
    </g>
    <g id="patch_8">
     <path d="M 117.9 86.087969 
L 139.9 86.087969 
L 139.9 78.387969 
L 117.9 78.387969 
z
" style="fill: #4c72b0; fill-opacity: 0.3; stroke: #4c72b0; stroke-linejoin: miter"/>
    </g>
    <g id="text_21">
     <!-- International Movies -->
     <g style="fill: #262626" transform="translate(148.7 86.087969) scale(0.11 -0.11)">
      <defs>
       <path id="ArialMT-49" d="M 597 0 
L 597 4581 
L 1203 4581 
L 1203 0 
L 597 0 
z
" transform="scale(0.015625)"/>
       <path id="ArialMT-6c" d="M 409 0 
L 409 4581 
L 972 4581 
L 972 0 
L 409 0 
z
" transform="scale(0.015625)"/>
       <path id="ArialMT-4d" d="M 475 0 
L 475 4581 
L 1388 4581 
L 2472 1338 
Q 2622 884 2691 659 
Q 2769 909 2934 1394 
L 4031 4581 
L 4847 4581 
L 4847 0 
L 4263 0 
L 4263 3834 
L 2931 0 
L 2384 0 
L 1059 3900 
L 1059 0 
L 475 0 
z
" transform="scale(0.015625)"/>
       <path id="ArialMT-76" d="M 1344 0 
L 81 3319 
L 675 3319 
L 1388 1331 
Q 1503 1009 1600 663 
Q 1675 925 1809 1294 
L 2547 3319 
L 3125 3319 
L 1869 0 
L 1344 0 
z
" transform="scale(0.015625)"/>
      </defs>
      <use xlink:href="#ArialMT-49"/>
      <use xlink:href="#ArialMT-6e" transform="translate(27.783203 0)"/>
      <use xlink:href="#ArialMT-74" transform="translate(83.398438 0)"/>
      <use xlink:href="#ArialMT-65" transform="translate(111.181641 0)"/>
      <use xlink:href="#ArialMT-72" transform="translate(166.796875 0)"/>
      <use xlink:href="#ArialMT-6e" transform="translate(200.097656 0)"/>
      <use xlink:href="#ArialMT-61" transform="translate(255.712891 0)"/>
      <use xlink:href="#ArialMT-74" transform="translate(311.328125 0)"/>
      <use xlink:href="#ArialMT-69" transform="translate(339.111328 0)"/>
      <use xlink:href="#ArialMT-6f" transform="translate(361.328125 0)"/>
      <use xlink:href="#ArialMT-6e" transform="translate(416.943359 0)"/>
      <use xlink:href="#ArialMT-61" transform="translate(472.558594 0)"/>
      <use xlink:href="#ArialMT-6c" transform="translate(528.173828 0)"/>
      <use xlink:href="#ArialMT-20" transform="translate(550.390625 0)"/>
      <use xlink:href="#ArialMT-4d" transform="translate(578.173828 0)"/>
      <use xlink:href="#ArialMT-6f" transform="translate(661.474609 0)"/>
      <use xlink:href="#ArialMT-76" transform="translate(717.089844 0)"/>
      <use xlink:href="#ArialMT-69" transform="translate(767.089844 0)"/>
      <use xlink:href="#ArialMT-65" transform="translate(789.306641 0)"/>
      <use xlink:href="#ArialMT-73" transform="translate(844.921875 0)"/>
     </g>
    </g>
    <g id="patch_9">
     <path d="M 117.9 101.647812 
L 139.9 101.647812 
L 139.9 93.947812 
L 117.9 93.947812 
z
" style="fill: #dd8452; fill-opacity: 0.3; stroke: #dd8452; stroke-linejoin: miter"/>
    </g>
    <g id="text_22">
     <!-- Dramas -->
     <g style="fill: #262626" transform="translate(148.7 101.647812) scale(0.11 -0.11)">
      <defs>
       <path id="ArialMT-6d" d="M 422 0 
L 422 3319 
L 925 3319 
L 925 2853 
Q 1081 3097 1340 3245 
Q 1600 3394 1931 3394 
Q 2300 3394 2536 3241 
Q 2772 3088 2869 2813 
Q 3263 3394 3894 3394 
Q 4388 3394 4653 3120 
Q 4919 2847 4919 2278 
L 4919 0 
L 4359 0 
L 4359 2091 
Q 4359 2428 4304 2576 
Q 4250 2725 4106 2815 
Q 3963 2906 3769 2906 
Q 3419 2906 3187 2673 
Q 2956 2441 2956 1928 
L 2956 0 
L 2394 0 
L 2394 2156 
Q 2394 2531 2256 2718 
Q 2119 2906 1806 2906 
Q 1569 2906 1367 2781 
Q 1166 2656 1075 2415 
Q 984 2175 984 1722 
L 984 0 
L 422 0 
z
" transform="scale(0.015625)"/>
      </defs>
      <use xlink:href="#ArialMT-44"/>
      <use xlink:href="#ArialMT-72" transform="translate(72.216797 0)"/>
      <use xlink:href="#ArialMT-61" transform="translate(105.517578 0)"/>
      <use xlink:href="#ArialMT-6d" transform="translate(161.132812 0)"/>
      <use xlink:href="#ArialMT-61" transform="translate(244.433594 0)"/>
      <use xlink:href="#ArialMT-73" transform="translate(300.048828 0)"/>
     </g>
    </g>
    <g id="patch_10">
     <path d="M 117.9 117.207656 
L 139.9 117.207656 
L 139.9 109.507656 
L 117.9 109.507656 
z
" style="fill: #55a868; fill-opacity: 0.3; stroke: #55a868; stroke-linejoin: miter"/>
    </g>
    <g id="text_23">
     <!-- Comedies -->
     <g style="fill: #262626" transform="translate(148.7 117.207656) scale(0.11 -0.11)">
      <defs>
       <path id="ArialMT-43" d="M 3763 1606 
L 4369 1453 
Q 4178 706 3683 314 
Q 3188 -78 2472 -78 
Q 1731 -78 1267 223 
Q 803 525 561 1097 
Q 319 1669 319 2325 
Q 319 3041 592 3573 
Q 866 4106 1370 4382 
Q 1875 4659 2481 4659 
Q 3169 4659 3637 4309 
Q 4106 3959 4291 3325 
L 3694 3184 
Q 3534 3684 3231 3912 
Q 2928 4141 2469 4141 
Q 1941 4141 1586 3887 
Q 1231 3634 1087 3207 
Q 944 2781 944 2328 
Q 944 1744 1114 1308 
Q 1284 872 1643 656 
Q 2003 441 2422 441 
Q 2931 441 3284 734 
Q 3638 1028 3763 1606 
z
" transform="scale(0.015625)"/>
      </defs>
      <use xlink:href="#ArialMT-43"/>
      <use xlink:href="#ArialMT-6f" transform="translate(72.216797 0)"/>
      <use xlink:href="#ArialMT-6d" transform="translate(127.832031 0)"/>
      <use xlink:href="#ArialMT-65" transform="translate(211.132812 0)"/>
      <use xlink:href="#ArialMT-64" transform="translate(266.748047 0)"/>
      <use xlink:href="#ArialMT-69" transform="translate(322.363281 0)"/>
      <use xlink:href="#ArialMT-65" transform="translate(344.580078 0)"/>
      <use xlink:href="#ArialMT-73" transform="translate(400.195312 0)"/>
     </g>
    </g>
    <g id="patch_11">
     <path d="M 117.9 132.7675 
L 139.9 132.7675 
L 139.9 125.0675 
L 117.9 125.0675 
z
" style="fill: #c44e52; fill-opacity: 0.3; stroke: #c44e52; stroke-linejoin: miter"/>
    </g>
    <g id="text_24">
     <!-- International TV Shows -->
     <g style="fill: #262626" transform="translate(148.7 132.7675) scale(0.11 -0.11)">
      <defs>
       <path id="ArialMT-56" d="M 1803 0 
L 28 4581 
L 684 4581 
L 1875 1253 
Q 2019 853 2116 503 
Q 2222 878 2363 1253 
L 3600 4581 
L 4219 4581 
L 2425 0 
L 1803 0 
z
" transform="scale(0.015625)"/>
       <path id="ArialMT-53" d="M 288 1472 
L 859 1522 
Q 900 1178 1048 958 
Q 1197 738 1509 602 
Q 1822 466 2213 466 
Q 2559 466 2825 569 
Q 3091 672 3220 851 
Q 3350 1031 3350 1244 
Q 3350 1459 3225 1620 
Q 3100 1781 2813 1891 
Q 2628 1963 1997 2114 
Q 1366 2266 1113 2400 
Q 784 2572 623 2826 
Q 463 3081 463 3397 
Q 463 3744 659 4045 
Q 856 4347 1234 4503 
Q 1613 4659 2075 4659 
Q 2584 4659 2973 4495 
Q 3363 4331 3572 4012 
Q 3781 3694 3797 3291 
L 3216 3247 
Q 3169 3681 2898 3903 
Q 2628 4125 2100 4125 
Q 1550 4125 1298 3923 
Q 1047 3722 1047 3438 
Q 1047 3191 1225 3031 
Q 1400 2872 2139 2705 
Q 2878 2538 3153 2413 
Q 3553 2228 3743 1945 
Q 3934 1663 3934 1294 
Q 3934 928 3725 604 
Q 3516 281 3123 101 
Q 2731 -78 2241 -78 
Q 1619 -78 1198 103 
Q 778 284 539 648 
Q 300 1013 288 1472 
z
" transform="scale(0.015625)"/>
       <path id="ArialMT-68" d="M 422 0 
L 422 4581 
L 984 4581 
L 984 2938 
Q 1378 3394 1978 3394 
Q 2347 3394 2619 3248 
Q 2891 3103 3008 2847 
Q 3125 2591 3125 2103 
L 3125 0 
L 2563 0 
L 2563 2103 
Q 2563 2525 2380 2717 
Q 2197 2909 1863 2909 
Q 1613 2909 1392 2779 
Q 1172 2650 1078 2428 
Q 984 2206 984 1816 
L 984 0 
L 422 0 
z
" transform="scale(0.015625)"/>
       <path id="ArialMT-77" d="M 1034 0 
L 19 3319 
L 600 3319 
L 1128 1403 
L 1325 691 
Q 1338 744 1497 1375 
L 2025 3319 
L 2603 3319 
L 3100 1394 
L 3266 759 
L 3456 1400 
L 4025 3319 
L 4572 3319 
L 3534 0 
L 2950 0 
L 2422 1988 
L 2294 2553 
L 1622 0 
L 1034 0 
z
" transform="scale(0.015625)"/>
      </defs>
      <use xlink:href="#ArialMT-49"/>
      <use xlink:href="#ArialMT-6e" transform="translate(27.783203 0)"/>
      <use xlink:href="#ArialMT-74" transform="translate(83.398438 0)"/>
      <use xlink:href="#ArialMT-65" transform="translate(111.181641 0)"/>
      <use xlink:href="#ArialMT-72" transform="translate(166.796875 0)"/>
      <use xlink:href="#ArialMT-6e" transform="translate(200.097656 0)"/>
      <use xlink:href="#ArialMT-61" transform="translate(255.712891 0)"/>
      <use xlink:href="#ArialMT-74" transform="translate(311.328125 0)"/>
      <use xlink:href="#ArialMT-69" transform="translate(339.111328 0)"/>
      <use xlink:href="#ArialMT-6f" transform="translate(361.328125 0)"/>
      <use xlink:href="#ArialMT-6e" transform="translate(416.943359 0)"/>
      <use xlink:href="#ArialMT-61" transform="translate(472.558594 0)"/>
      <use xlink:href="#ArialMT-6c" transform="translate(528.173828 0)"/>
      <use xlink:href="#ArialMT-20" transform="translate(550.390625 0)"/>
      <use xlink:href="#ArialMT-54" transform="translate(576.423828 0)"/>
      <use xlink:href="#ArialMT-56" transform="translate(637.507812 0)"/>
      <use xlink:href="#ArialMT-20" transform="translate(704.207031 0)"/>
      <use xlink:href="#ArialMT-53" transform="translate(731.990234 0)"/>
      <use xlink:href="#ArialMT-68" transform="translate(798.689453 0)"/>
      <use xlink:href="#ArialMT-6f" transform="translate(854.304688 0)"/>
      <use xlink:href="#ArialMT-77" transform="translate(909.919922 0)"/>
      <use xlink:href="#ArialMT-73" transform="translate(982.136719 0)"/>
     </g>
    </g>
   </g>
  </g>
 </g>
 <defs>
  <clipPath id="pe68255b4e6">
   <rect x="108" y="51.84" width="669.6" height="332.64"/>
  </clipPath>
 </defs>
</svg>
