<?xml version="1.0" encoding="utf-8" standalone="no"?>
<!DOCTYPE svg PUBLIC "-//W3C//DTD SVG 1.1//EN"
  "http://www.w3.org/Graphics/SVG/1.1/DTD/svg11.dtd">
<svg xmlns:xlink="http://www.w3.org/1999/xlink" width="720pt" height="432pt" viewBox="0 0 720 432" xmlns="http://www.w3.org/2000/svg" version="1.1">
 <metadata>
  <rdf:RDF xmlns:dc="http://purl.org/dc/elements/1.1/" xmlns:cc="http://creativecommons.org/ns#" xmlns:rdf="http://www.w3.org/1999/02/22-rdf-syntax-ns#">
   <cc:Work>
    <dc:type rdf:resource="http://purl.org/dc/dcmitype/StillImage"/>
    <dc:date>2025-04-28T17:04:38.066516</dc:date>
    <dc:format>image/svg+xml</dc:format>
    <dc:creator>
     <cc:Agent>
      <dc:title>Matplotlib v3.10.1, https://matplotlib.org/</dc:title>
     </cc:Agent>
    </dc:creator>
   </cc:Work>
  </rdf:RDF>
 </metadata>
 <defs>
  <style type="text/css">*{stroke-linejoin: round; stroke-linecap: butt}</style>
 </defs>
 <g id="figure_1">
  <g id="patch_1">
   <path d="M 0 432 
L 720 432 
L 720 0 
L 0 0 
z
" style="fill: #ffffff"/>
  </g>
  <g id="axes_1">
   <g id="patch_2">
    <path d="M 90 384.48 
L 648 384.48 
L 648 51.84 
L 90 51.84 
z
" style="fill: #ffffff"/>
   </g>
   <g id="matplotlib.axis_1">
    <g id="xtick_1">
     <g id="line2d_1">
      <path d="M 148.051111 384.48 
L 148.051111 51.84 
" clip-path="url(#p092484c85b)" style="fill: none; stroke: #cccccc; stroke-linecap: round"/>
     </g>
     <g id="text_1">
      <!-- 0 -->
      <g style="fill: #262626" transform="translate(144.992595 401.853594) scale(0.11 -0.11)">
       <defs>
        <path id="ArialMT-30" d="M 266 2259 
Q 266 3072 433 3567 
Q 600 4063 929 4331 
Q 1259 4600 1759 4600 
Q 2128 4600 2406 4451 
Q 2684 4303 2865 4023 
Q 3047 3744 3150 3342 
Q 3253 2941 3253 2259 
Q 3253 1453 3087 958 
Q 2922 463 2592 192 
Q 2263 -78 1759 -78 
Q 1097 -78 719 397 
Q 266 969 266 2259 
z
M 844 2259 
Q 844 1131 1108 757 
Q 1372 384 1759 384 
Q 2147 384 2411 759 
Q 2675 1134 2675 2259 
Q 2675 3391 2411 3762 
Q 2147 4134 1753 4134 
Q 1366 4134 1134 3806 
Q 844 3388 844 2259 
z
" transform="scale(0.015625)"/>
       </defs>
       <use xlink:href="#ArialMT-30"/>
      </g>
     </g>
    </g>
    <g id="xtick_2">
     <g id="line2d_2">
      <path d="M 236.430667 384.48 
L 236.430667 51.84 
" clip-path="url(#p092484c85b)" style="fill: none; stroke: #cccccc; stroke-linecap: round"/>
     </g>
     <g id="text_2">
      <!-- 10 -->
      <g style="fill: #262626" transform="translate(230.313635 401.853594) scale(0.11 -0.11)">
       <defs>
        <path id="ArialMT-31" d="M 2384 0 
L 1822 0 
L 1822 3584 
Q 1619 3391 1289 3197 
Q 959 3003 697 2906 
L 697 3450 
Q 1169 3672 1522 3987 
Q 1875 4303 2022 4600 
L 2384 4600 
L 2384 0 
z
" transform="scale(0.015625)"/>
       </defs>
       <use xlink:href="#ArialMT-31"/>
       <use xlink:href="#ArialMT-30" transform="translate(55.615234 0)"/>
      </g>
     </g>
    </g>
    <g id="xtick_3">
     <g id="line2d_3">
      <path d="M 324.810222 384.48 
L 324.810222 51.84 
" clip-path="url(#p092484c85b)" style="fill: none; stroke: #cccccc; stroke-linecap: round"/>
     </g>
     <g id="text_3">
      <!-- 20 -->
      <g style="fill: #262626" transform="translate(318.693191 401.853594) scale(0.11 -0.11)">
       <defs>
        <path id="ArialMT-32" d="M 3222 541 
L 3222 0 
L 194 0 
Q 188 203 259 391 
Q 375 700 629 1000 
Q 884 1300 1366 1694 
Q 2113 2306 2375 2664 
Q 2638 3022 2638 3341 
Q 2638 3675 2398 3904 
Q 2159 4134 1775 4134 
Q 1369 4134 1125 3890 
Q 881 3647 878 3216 
L 300 3275 
Q 359 3922 746 4261 
Q 1134 4600 1788 4600 
Q 2447 4600 2831 4234 
Q 3216 3869 3216 3328 
Q 3216 3053 3103 2787 
Q 2991 2522 2730 2228 
Q 2469 1934 1863 1422 
Q 1356 997 1212 845 
Q 1069 694 975 541 
L 3222 541 
z
" transform="scale(0.015625)"/>
       </defs>
       <use xlink:href="#ArialMT-32"/>
       <use xlink:href="#ArialMT-30" transform="translate(55.615234 0)"/>
      </g>
     </g>
    </g>
    <g id="xtick_4">
     <g id="line2d_4">
      <path d="M 413.189778 384.48 
L 413.189778 51.84 
" clip-path="url(#p092484c85b)" style="fill: none; stroke: #cccccc; stroke-linecap: round"/>
     </g>
     <g id="text_4">
      <!-- 30 -->
      <g style="fill: #262626" transform="translate(407.072747 401.853594) scale(0.11 -0.11)">
       <defs>
        <path id="ArialMT-33" d="M 269 1209 
L 831 1284 
Q 928 806 1161 595 
Q 1394 384 1728 384 
Q 2125 384 2398 659 
Q 2672 934 2672 1341 
Q 2672 1728 2419 1979 
Q 2166 2231 1775 2231 
Q 1616 2231 1378 2169 
L 1441 2663 
Q 1497 2656 1531 2656 
Q 1891 2656 2178 2843 
Q 2466 3031 2466 3422 
Q 2466 3731 2256 3934 
Q 2047 4138 1716 4138 
Q 1388 4138 1169 3931 
Q 950 3725 888 3313 
L 325 3413 
Q 428 3978 793 4289 
Q 1159 4600 1703 4600 
Q 2078 4600 2393 4439 
Q 2709 4278 2876 4000 
Q 3044 3722 3044 3409 
Q 3044 3113 2884 2869 
Q 2725 2625 2413 2481 
Q 2819 2388 3044 2092 
Q 3269 1797 3269 1353 
Q 3269 753 2831 336 
Q 2394 -81 1725 -81 
Q 1122 -81 723 278 
Q 325 638 269 1209 
z
" transform="scale(0.015625)"/>
       </defs>
       <use xlink:href="#ArialMT-33"/>
       <use xlink:href="#ArialMT-30" transform="translate(55.615234 0)"/>
      </g>
     </g>
    </g>
    <g id="xtick_5">
     <g id="line2d_5">
      <path d="M 501.569333 384.48 
L 501.569333 51.84 
" clip-path="url(#p092484c85b)" style="fill: none; stroke: #cccccc; stroke-linecap: round"/>
     </g>
     <g id="text_5">
      <!-- 40 -->
      <g style="fill: #262626" transform="translate(495.452302 401.853594) scale(0.11 -0.11)">
       <defs>
        <path id="ArialMT-34" d="M 2069 0 
L 2069 1097 
L 81 1097 
L 81 1613 
L 2172 4581 
L 2631 4581 
L 2631 1613 
L 3250 1613 
L 3250 1097 
L 2631 1097 
L 2631 0 
L 2069 0 
z
M 2069 1613 
L 2069 3678 
L 634 1613 
L 2069 1613 
z
" transform="scale(0.015625)"/>
       </defs>
       <use xlink:href="#ArialMT-34"/>
       <use xlink:href="#ArialMT-30" transform="translate(55.615234 0)"/>
      </g>
     </g>
    </g>
    <g id="xtick_6">
     <g id="line2d_6">
      <path d="M 589.948889 384.48 
L 589.948889 51.84 
" clip-path="url(#p092484c85b)" style="fill: none; stroke: #cccccc; stroke-linecap: round"/>
     </g>
     <g id="text_6">
      <!-- 50 -->
      <g style="fill: #262626" transform="translate(583.831858 401.853594) scale(0.11 -0.11)">
       <defs>
        <path id="ArialMT-35" d="M 266 1200 
L 856 1250 
Q 922 819 1161 601 
Q 1400 384 1738 384 
Q 2144 384 2425 690 
Q 2706 997 2706 1503 
Q 2706 1984 2436 2262 
Q 2166 2541 1728 2541 
Q 1456 2541 1237 2417 
Q 1019 2294 894 2097 
L 366 2166 
L 809 4519 
L 3088 4519 
L 3088 3981 
L 1259 3981 
L 1013 2750 
Q 1425 3038 1878 3038 
Q 2478 3038 2890 2622 
Q 3303 2206 3303 1553 
Q 3303 931 2941 478 
Q 2500 -78 1738 -78 
Q 1113 -78 717 272 
Q 322 622 266 1200 
z
" transform="scale(0.015625)"/>
       </defs>
       <use xlink:href="#ArialMT-35"/>
       <use xlink:href="#ArialMT-30" transform="translate(55.615234 0)"/>
      </g>
     </g>
    </g>
    <g id="text_7">
     <!-- Number of Actors -->
     <g style="fill: #262626" transform="translate(322.650937 416.629219) scale(0.12 -0.12)">
      <defs>
       <path id="ArialMT-4e" d="M 488 0 
L 488 4581 
L 1109 4581 
L 3516 984 
L 3516 4581 
L 4097 4581 
L 4097 0 
L 3475 0 
L 1069 3600 
L 1069 0 
L 488 0 
z
" transform="scale(0.015625)"/>
       <path id="ArialMT-75" d="M 2597 0 
L 2597 488 
Q 2209 -75 1544 -75 
Q 1250 -75 995 37 
Q 741 150 617 320 
Q 494 491 444 738 
Q 409 903 409 1263 
L 409 3319 
L 972 3319 
L 972 1478 
Q 972 1038 1006 884 
Q 1059 663 1231 536 
Q 1403 409 1656 409 
Q 1909 409 2131 539 
Q 2353 669 2445 892 
Q 2538 1116 2538 1541 
L 2538 3319 
L 3100 3319 
L 3100 0 
L 2597 0 
z
" transform="scale(0.015625)"/>
       <path id="ArialMT-6d" d="M 422 0 
L 422 3319 
L 925 3319 
L 925 2853 
Q 1081 3097 1340 3245 
Q 1600 3394 1931 3394 
Q 2300 3394 2536 3241 
Q 2772 3088 2869 2813 
Q 3263 3394 3894 3394 
Q 4388 3394 4653 3120 
Q 4919 2847 4919 2278 
L 4919 0 
L 4359 0 
L 4359 2091 
Q 4359 2428 4304 2576 
Q 4250 2725 4106 2815 
Q 3963 2906 3769 2906 
Q 3419 2906 3187 2673 
Q 2956 2441 2956 1928 
L 2956 0 
L 2394 0 
L 2394 2156 
Q 2394 2531 2256 2718 
Q 2119 2906 1806 2906 
Q 1569 2906 1367 2781 
Q 1166 2656 1075 2415 
Q 984 2175 984 1722 
L 984 0 
L 422 0 
z
" transform="scale(0.015625)"/>
       <path id="ArialMT-62" d="M 941 0 
L 419 0 
L 419 4581 
L 981 4581 
L 981 2947 
Q 1338 3394 1891 3394 
Q 2197 3394 2470 3270 
Q 2744 3147 2920 2923 
Q 3097 2700 3197 2384 
Q 3297 2069 3297 1709 
Q 3297 856 2875 390 
Q 2453 -75 1863 -75 
Q 1275 -75 941 416 
L 941 0 
z
M 934 1684 
Q 934 1088 1097 822 
Q 1363 388 1816 388 
Q 2184 388 2453 708 
Q 2722 1028 2722 1663 
Q 2722 2313 2464 2622 
Q 2206 2931 1841 2931 
Q 1472 2931 1203 2611 
Q 934 2291 934 1684 
z
" transform="scale(0.015625)"/>
       <path id="ArialMT-65" d="M 2694 1069 
L 3275 997 
Q 3138 488 2766 206 
Q 2394 -75 1816 -75 
Q 1088 -75 661 373 
Q 234 822 234 1631 
Q 234 2469 665 2931 
Q 1097 3394 1784 3394 
Q 2450 3394 2872 2941 
Q 3294 2488 3294 1666 
Q 3294 1616 3291 1516 
L 816 1516 
Q 847 969 1125 678 
Q 1403 388 1819 388 
Q 2128 388 2347 550 
Q 2566 713 2694 1069 
z
M 847 1978 
L 2700 1978 
Q 2663 2397 2488 2606 
Q 2219 2931 1791 2931 
Q 1403 2931 1139 2672 
Q 875 2413 847 1978 
z
" transform="scale(0.015625)"/>
       <path id="ArialMT-72" d="M 416 0 
L 416 3319 
L 922 3319 
L 922 2816 
Q 1116 3169 1280 3281 
Q 1444 3394 1641 3394 
Q 1925 3394 2219 3213 
L 2025 2691 
Q 1819 2813 1613 2813 
Q 1428 2813 1281 2702 
Q 1134 2591 1072 2394 
Q 978 2094 978 1738 
L 978 0 
L 416 0 
z
" transform="scale(0.015625)"/>
       <path id="ArialMT-20" transform="scale(0.015625)"/>
       <path id="ArialMT-6f" d="M 213 1659 
Q 213 2581 725 3025 
Q 1153 3394 1769 3394 
Q 2453 3394 2887 2945 
Q 3322 2497 3322 1706 
Q 3322 1066 3130 698 
Q 2938 331 2570 128 
Q 2203 -75 1769 -75 
Q 1072 -75 642 372 
Q 213 819 213 1659 
z
M 791 1659 
Q 791 1022 1069 705 
Q 1347 388 1769 388 
Q 2188 388 2466 706 
Q 2744 1025 2744 1678 
Q 2744 2294 2464 2611 
Q 2184 2928 1769 2928 
Q 1347 2928 1069 2612 
Q 791 2297 791 1659 
z
" transform="scale(0.015625)"/>
       <path id="ArialMT-66" d="M 556 0 
L 556 2881 
L 59 2881 
L 59 3319 
L 556 3319 
L 556 3672 
Q 556 4006 616 4169 
Q 697 4388 901 4523 
Q 1106 4659 1475 4659 
Q 1713 4659 2000 4603 
L 1916 4113 
Q 1741 4144 1584 4144 
Q 1328 4144 1222 4034 
Q 1116 3925 1116 3625 
L 1116 3319 
L 1763 3319 
L 1763 2881 
L 1116 2881 
L 1116 0 
L 556 0 
z
" transform="scale(0.015625)"/>
       <path id="ArialMT-41" d="M -9 0 
L 1750 4581 
L 2403 4581 
L 4278 0 
L 3588 0 
L 3053 1388 
L 1138 1388 
L 634 0 
L -9 0 
z
M 1313 1881 
L 2866 1881 
L 2388 3150 
Q 2169 3728 2063 4100 
Q 1975 3659 1816 3225 
L 1313 1881 
z
" transform="scale(0.015625)"/>
       <path id="ArialMT-63" d="M 2588 1216 
L 3141 1144 
Q 3050 572 2676 248 
Q 2303 -75 1759 -75 
Q 1078 -75 664 370 
Q 250 816 250 1647 
Q 250 2184 428 2587 
Q 606 2991 970 3192 
Q 1334 3394 1763 3394 
Q 2303 3394 2647 3120 
Q 2991 2847 3088 2344 
L 2541 2259 
Q 2463 2594 2264 2762 
Q 2066 2931 1784 2931 
Q 1359 2931 1093 2626 
Q 828 2322 828 1663 
Q 828 994 1084 691 
Q 1341 388 1753 388 
Q 2084 388 2306 591 
Q 2528 794 2588 1216 
z
" transform="scale(0.015625)"/>
       <path id="ArialMT-74" d="M 1650 503 
L 1731 6 
Q 1494 -44 1306 -44 
Q 1000 -44 831 53 
Q 663 150 594 308 
Q 525 466 525 972 
L 525 2881 
L 113 2881 
L 113 3319 
L 525 3319 
L 525 4141 
L 1084 4478 
L 1084 3319 
L 1650 3319 
L 1650 2881 
L 1084 2881 
L 1084 941 
Q 1084 700 1114 631 
Q 1144 563 1211 522 
Q 1278 481 1403 481 
Q 1497 481 1650 503 
z
" transform="scale(0.015625)"/>
       <path id="ArialMT-73" d="M 197 991 
L 753 1078 
Q 800 744 1014 566 
Q 1228 388 1613 388 
Q 2000 388 2187 545 
Q 2375 703 2375 916 
Q 2375 1106 2209 1216 
Q 2094 1291 1634 1406 
Q 1016 1563 777 1677 
Q 538 1791 414 1992 
Q 291 2194 291 2438 
Q 291 2659 392 2848 
Q 494 3038 669 3163 
Q 800 3259 1026 3326 
Q 1253 3394 1513 3394 
Q 1903 3394 2198 3281 
Q 2494 3169 2634 2976 
Q 2775 2784 2828 2463 
L 2278 2388 
Q 2241 2644 2061 2787 
Q 1881 2931 1553 2931 
Q 1166 2931 1000 2803 
Q 834 2675 834 2503 
Q 834 2394 903 2306 
Q 972 2216 1119 2156 
Q 1203 2125 1616 2013 
Q 2213 1853 2448 1751 
Q 2684 1650 2818 1456 
Q 2953 1263 2953 975 
Q 2953 694 2789 445 
Q 2625 197 2315 61 
Q 2006 -75 1616 -75 
Q 969 -75 630 194 
Q 291 463 197 991 
z
" transform="scale(0.015625)"/>
      </defs>
      <use xlink:href="#ArialMT-4e"/>
      <use xlink:href="#ArialMT-75" transform="translate(72.216797 0)"/>
      <use xlink:href="#ArialMT-6d" transform="translate(127.832031 0)"/>
      <use xlink:href="#ArialMT-62" transform="translate(211.132812 0)"/>
      <use xlink:href="#ArialMT-65" transform="translate(266.748047 0)"/>
      <use xlink:href="#ArialMT-72" transform="translate(322.363281 0)"/>
      <use xlink:href="#ArialMT-20" transform="translate(355.664062 0)"/>
      <use xlink:href="#ArialMT-6f" transform="translate(383.447266 0)"/>
      <use xlink:href="#ArialMT-66" transform="translate(439.0625 0)"/>
      <use xlink:href="#ArialMT-20" transform="translate(466.845703 0)"/>
      <use xlink:href="#ArialMT-41" transform="translate(489.128906 0)"/>
      <use xlink:href="#ArialMT-63" transform="translate(555.828125 0)"/>
      <use xlink:href="#ArialMT-74" transform="translate(605.828125 0)"/>
      <use xlink:href="#ArialMT-6f" transform="translate(633.611328 0)"/>
      <use xlink:href="#ArialMT-72" transform="translate(689.226562 0)"/>
      <use xlink:href="#ArialMT-73" transform="translate(722.527344 0)"/>
     </g>
    </g>
   </g>
   <g id="matplotlib.axis_2">
    <g id="ytick_1">
     <g id="line2d_7">
      <path d="M 90 384.48 
L 648 384.48 
" clip-path="url(#p092484c85b)" style="fill: none; stroke: #cccccc; stroke-linecap: round"/>
     </g>
     <g id="text_8">
      <!-- 0.00 -->
      <g style="fill: #262626" transform="translate(59.092969 388.416797) scale(0.11 -0.11)">
       <defs>
        <path id="ArialMT-2e" d="M 581 0 
L 581 641 
L 1222 641 
L 1222 0 
L 581 0 
z
" transform="scale(0.015625)"/>
       </defs>
       <use xlink:href="#ArialMT-30"/>
       <use xlink:href="#ArialMT-2e" transform="translate(55.615234 0)"/>
       <use xlink:href="#ArialMT-30" transform="translate(83.398438 0)"/>
       <use xlink:href="#ArialMT-30" transform="translate(139.013672 0)"/>
      </g>
     </g>
    </g>
    <g id="ytick_2">
     <g id="line2d_8">
      <path d="M 90 338.969656 
L 648 338.969656 
" clip-path="url(#p092484c85b)" style="fill: none; stroke: #cccccc; stroke-linecap: round"/>
     </g>
     <g id="text_9">
      <!-- 0.02 -->
      <g style="fill: #262626" transform="translate(59.092969 342.906453) scale(0.11 -0.11)">
       <use xlink:href="#ArialMT-30"/>
       <use xlink:href="#ArialMT-2e" transform="translate(55.615234 0)"/>
       <use xlink:href="#ArialMT-30" transform="translate(83.398438 0)"/>
       <use xlink:href="#ArialMT-32" transform="translate(139.013672 0)"/>
      </g>
     </g>
    </g>
    <g id="ytick_3">
     <g id="line2d_9">
      <path d="M 90 293.459312 
L 648 293.459312 
" clip-path="url(#p092484c85b)" style="fill: none; stroke: #cccccc; stroke-linecap: round"/>
     </g>
     <g id="text_10">
      <!-- 0.04 -->
      <g style="fill: #262626" transform="translate(59.092969 297.396108) scale(0.11 -0.11)">
       <use xlink:href="#ArialMT-30"/>
       <use xlink:href="#ArialMT-2e" transform="translate(55.615234 0)"/>
       <use xlink:href="#ArialMT-30" transform="translate(83.398438 0)"/>
       <use xlink:href="#ArialMT-34" transform="translate(139.013672 0)"/>
      </g>
     </g>
    </g>
    <g id="ytick_4">
     <g id="line2d_10">
      <path d="M 90 247.948967 
L 648 247.948967 
" clip-path="url(#p092484c85b)" style="fill: none; stroke: #cccccc; stroke-linecap: round"/>
     </g>
     <g id="text_11">
      <!-- 0.06 -->
      <g style="fill: #262626" transform="translate(59.092969 251.885764) scale(0.11 -0.11)">
       <defs>
        <path id="ArialMT-36" d="M 3184 3459 
L 2625 3416 
Q 2550 3747 2413 3897 
Q 2184 4138 1850 4138 
Q 1581 4138 1378 3988 
Q 1113 3794 959 3422 
Q 806 3050 800 2363 
Q 1003 2672 1297 2822 
Q 1591 2972 1913 2972 
Q 2475 2972 2870 2558 
Q 3266 2144 3266 1488 
Q 3266 1056 3080 686 
Q 2894 316 2569 119 
Q 2244 -78 1831 -78 
Q 1128 -78 684 439 
Q 241 956 241 2144 
Q 241 3472 731 4075 
Q 1159 4600 1884 4600 
Q 2425 4600 2770 4297 
Q 3116 3994 3184 3459 
z
M 888 1484 
Q 888 1194 1011 928 
Q 1134 663 1356 523 
Q 1578 384 1822 384 
Q 2178 384 2434 671 
Q 2691 959 2691 1453 
Q 2691 1928 2437 2201 
Q 2184 2475 1800 2475 
Q 1419 2475 1153 2201 
Q 888 1928 888 1484 
z
" transform="scale(0.015625)"/>
       </defs>
       <use xlink:href="#ArialMT-30"/>
       <use xlink:href="#ArialMT-2e" transform="translate(55.615234 0)"/>
       <use xlink:href="#ArialMT-30" transform="translate(83.398438 0)"/>
       <use xlink:href="#ArialMT-36" transform="translate(139.013672 0)"/>
      </g>
     </g>
    </g>
    <g id="ytick_5">
     <g id="line2d_11">
      <path d="M 90 202.438623 
L 648 202.438623 
" clip-path="url(#p092484c85b)" style="fill: none; stroke: #cccccc; stroke-linecap: round"/>
     </g>
     <g id="text_12">
      <!-- 0.08 -->
      <g style="fill: #262626" transform="translate(59.092969 206.37542) scale(0.11 -0.11)">
       <defs>
        <path id="ArialMT-38" d="M 1131 2484 
Q 781 2613 612 2850 
Q 444 3088 444 3419 
Q 444 3919 803 4259 
Q 1163 4600 1759 4600 
Q 2359 4600 2725 4251 
Q 3091 3903 3091 3403 
Q 3091 3084 2923 2848 
Q 2756 2613 2416 2484 
Q 2838 2347 3058 2040 
Q 3278 1734 3278 1309 
Q 3278 722 2862 322 
Q 2447 -78 1769 -78 
Q 1091 -78 675 323 
Q 259 725 259 1325 
Q 259 1772 486 2073 
Q 713 2375 1131 2484 
z
M 1019 3438 
Q 1019 3113 1228 2906 
Q 1438 2700 1772 2700 
Q 2097 2700 2305 2904 
Q 2513 3109 2513 3406 
Q 2513 3716 2298 3927 
Q 2084 4138 1766 4138 
Q 1444 4138 1231 3931 
Q 1019 3725 1019 3438 
z
M 838 1322 
Q 838 1081 952 856 
Q 1066 631 1291 507 
Q 1516 384 1775 384 
Q 2178 384 2440 643 
Q 2703 903 2703 1303 
Q 2703 1709 2433 1975 
Q 2163 2241 1756 2241 
Q 1359 2241 1098 1978 
Q 838 1716 838 1322 
z
" transform="scale(0.015625)"/>
       </defs>
       <use xlink:href="#ArialMT-30"/>
       <use xlink:href="#ArialMT-2e" transform="translate(55.615234 0)"/>
       <use xlink:href="#ArialMT-30" transform="translate(83.398438 0)"/>
       <use xlink:href="#ArialMT-38" transform="translate(139.013672 0)"/>
      </g>
     </g>
    </g>
    <g id="ytick_6">
     <g id="line2d_12">
      <path d="M 90 156.928279 
L 648 156.928279 
" clip-path="url(#p092484c85b)" style="fill: none; stroke: #cccccc; stroke-linecap: round"/>
     </g>
     <g id="text_13">
      <!-- 0.10 -->
      <g style="fill: #262626" transform="translate(59.092969 160.865076) scale(0.11 -0.11)">
       <use xlink:href="#ArialMT-30"/>
       <use xlink:href="#ArialMT-2e" transform="translate(55.615234 0)"/>
       <use xlink:href="#ArialMT-31" transform="translate(83.398438 0)"/>
       <use xlink:href="#ArialMT-30" transform="translate(139.013672 0)"/>
      </g>
     </g>
    </g>
    <g id="ytick_7">
     <g id="line2d_13">
      <path d="M 90 111.417935 
L 648 111.417935 
" clip-path="url(#p092484c85b)" style="fill: none; stroke: #cccccc; stroke-linecap: round"/>
     </g>
     <g id="text_14">
      <!-- 0.12 -->
      <g style="fill: #262626" transform="translate(59.092969 115.354732) scale(0.11 -0.11)">
       <use xlink:href="#ArialMT-30"/>
       <use xlink:href="#ArialMT-2e" transform="translate(55.615234 0)"/>
       <use xlink:href="#ArialMT-31" transform="translate(83.398438 0)"/>
       <use xlink:href="#ArialMT-32" transform="translate(139.013672 0)"/>
      </g>
     </g>
    </g>
    <g id="ytick_8">
     <g id="line2d_14">
      <path d="M 90 65.907591 
L 648 65.907591 
" clip-path="url(#p092484c85b)" style="fill: none; stroke: #cccccc; stroke-linecap: round"/>
     </g>
     <g id="text_15">
      <!-- 0.14 -->
      <g style="fill: #262626" transform="translate(59.092969 69.844387) scale(0.11 -0.11)">
       <use xlink:href="#ArialMT-30"/>
       <use xlink:href="#ArialMT-2e" transform="translate(55.615234 0)"/>
       <use xlink:href="#ArialMT-31" transform="translate(83.398438 0)"/>
       <use xlink:href="#ArialMT-34" transform="translate(139.013672 0)"/>
      </g>
     </g>
    </g>
    <g id="text_16">
     <!-- Density -->
     <g style="fill: #262626" transform="translate(52.567344 238.16625) rotate(-90) scale(0.12 -0.12)">
      <defs>
       <path id="ArialMT-44" d="M 494 0 
L 494 4581 
L 2072 4581 
Q 2606 4581 2888 4516 
Q 3281 4425 3559 4188 
Q 3922 3881 4101 3404 
Q 4281 2928 4281 2316 
Q 4281 1794 4159 1391 
Q 4038 988 3847 723 
Q 3656 459 3429 307 
Q 3203 156 2883 78 
Q 2563 0 2147 0 
L 494 0 
z
M 1100 541 
L 2078 541 
Q 2531 541 2789 625 
Q 3047 709 3200 863 
Q 3416 1078 3536 1442 
Q 3656 1806 3656 2325 
Q 3656 3044 3420 3430 
Q 3184 3816 2847 3947 
Q 2603 4041 2063 4041 
L 1100 4041 
L 1100 541 
z
" transform="scale(0.015625)"/>
       <path id="ArialMT-6e" d="M 422 0 
L 422 3319 
L 928 3319 
L 928 2847 
Q 1294 3394 1984 3394 
Q 2284 3394 2536 3286 
Q 2788 3178 2913 3003 
Q 3038 2828 3088 2588 
Q 3119 2431 3119 2041 
L 3119 0 
L 2556 0 
L 2556 2019 
Q 2556 2363 2490 2533 
Q 2425 2703 2258 2804 
Q 2091 2906 1866 2906 
Q 1506 2906 1245 2678 
Q 984 2450 984 1813 
L 984 0 
L 422 0 
z
" transform="scale(0.015625)"/>
       <path id="ArialMT-69" d="M 425 3934 
L 425 4581 
L 988 4581 
L 988 3934 
L 425 3934 
z
M 425 0 
L 425 3319 
L 988 3319 
L 988 0 
L 425 0 
z
" transform="scale(0.015625)"/>
       <path id="ArialMT-79" d="M 397 -1278 
L 334 -750 
Q 519 -800 656 -800 
Q 844 -800 956 -737 
Q 1069 -675 1141 -563 
Q 1194 -478 1313 -144 
Q 1328 -97 1363 -6 
L 103 3319 
L 709 3319 
L 1400 1397 
Q 1534 1031 1641 628 
Q 1738 1016 1872 1384 
L 2581 3319 
L 3144 3319 
L 1881 -56 
Q 1678 -603 1566 -809 
Q 1416 -1088 1222 -1217 
Q 1028 -1347 759 -1347 
Q 597 -1347 397 -1278 
z
" transform="scale(0.015625)"/>
      </defs>
      <use xlink:href="#ArialMT-44"/>
      <use xlink:href="#ArialMT-65" transform="translate(72.216797 0)"/>
      <use xlink:href="#ArialMT-6e" transform="translate(127.832031 0)"/>
      <use xlink:href="#ArialMT-73" transform="translate(183.447266 0)"/>
      <use xlink:href="#ArialMT-69" transform="translate(233.447266 0)"/>
      <use xlink:href="#ArialMT-74" transform="translate(255.664062 0)"/>
      <use xlink:href="#ArialMT-79" transform="translate(283.447266 0)"/>
     </g>
    </g>
   </g>
   <g id="FillBetweenPolyCollection_1">
    <defs>
     <path id="mf342303322" d="M 128.172995 -48.573533 
L 128.172995 -47.52 
L 130.326896 -47.52 
L 132.480796 -47.52 
L 134.634697 -47.52 
L 136.788598 -47.52 
L 138.942499 -47.52 
L 141.0964 -47.52 
L 143.250301 -47.52 
L 145.404202 -47.52 
L 147.558103 -47.52 
L 149.712004 -47.52 
L 151.865904 -47.52 
L 154.019805 -47.52 
L 156.173706 -47.52 
L 158.327607 -47.52 
L 160.481508 -47.52 
L 162.635409 -47.52 
L 164.78931 -47.52 
L 166.943211 -47.52 
L 169.097112 -47.52 
L 171.251012 -47.52 
L 173.404913 -47.52 
L 175.558814 -47.52 
L 177.712715 -47.52 
L 179.866616 -47.52 
L 182.020517 -47.52 
L 184.174418 -47.52 
L 186.328319 -47.52 
L 188.48222 -47.52 
L 190.63612 -47.52 
L 192.790021 -47.52 
L 194.943922 -47.52 
L 197.097823 -47.52 
L 199.251724 -47.52 
L 201.405625 -47.52 
L 203.559526 -47.52 
L 205.713427 -47.52 
L 207.867328 -47.52 
L 210.021229 -47.52 
L 212.175129 -47.52 
L 214.32903 -47.52 
L 216.482931 -47.52 
L 218.636832 -47.52 
L 220.790733 -47.52 
L 222.944634 -47.52 
L 225.098535 -47.52 
L 227.252436 -47.52 
L 229.406337 -47.52 
L 231.560237 -47.52 
L 233.714138 -47.52 
L 235.868039 -47.52 
L 238.02194 -47.52 
L 240.175841 -47.52 
L 242.329742 -47.52 
L 244.483643 -47.52 
L 246.637544 -47.52 
L 248.791445 -47.52 
L 250.945345 -47.52 
L 253.099246 -47.52 
L 255.253147 -47.52 
L 257.407048 -47.52 
L 259.560949 -47.52 
L 261.71485 -47.52 
L 263.868751 -47.52 
L 266.022652 -47.52 
L 268.176553 -47.52 
L 270.330453 -47.52 
L 272.484354 -47.52 
L 274.638255 -47.52 
L 276.792156 -47.52 
L 278.946057 -47.52 
L 281.099958 -47.52 
L 283.253859 -47.52 
L 285.40776 -47.52 
L 287.561661 -47.52 
L 289.715561 -47.52 
L 291.869462 -47.52 
L 294.023363 -47.52 
L 296.177264 -47.52 
L 298.331165 -47.52 
L 300.485066 -47.52 
L 302.638967 -47.52 
L 304.792868 -47.52 
L 306.946769 -47.52 
L 309.10067 -47.52 
L 311.25457 -47.52 
L 313.408471 -47.52 
L 315.562372 -47.52 
L 317.716273 -47.52 
L 319.870174 -47.52 
L 322.024075 -47.52 
L 324.177976 -47.52 
L 326.331877 -47.52 
L 328.485778 -47.52 
L 330.639678 -47.52 
L 332.793579 -47.52 
L 334.94748 -47.52 
L 337.101381 -47.52 
L 339.255282 -47.52 
L 341.409183 -47.52 
L 343.563084 -47.52 
L 345.716985 -47.52 
L 347.870886 -47.52 
L 350.024786 -47.52 
L 352.178687 -47.52 
L 354.332588 -47.52 
L 356.486489 -47.52 
L 358.64039 -47.52 
L 360.794291 -47.52 
L 362.948192 -47.52 
L 365.102093 -47.52 
L 367.255994 -47.52 
L 369.409894 -47.52 
L 371.563795 -47.52 
L 373.717696 -47.52 
L 375.871597 -47.52 
L 378.025498 -47.52 
L 380.179399 -47.52 
L 382.3333 -47.52 
L 384.487201 -47.52 
L 386.641102 -47.52 
L 388.795002 -47.52 
L 390.948903 -47.52 
L 393.102804 -47.52 
L 395.256705 -47.52 
L 397.410606 -47.52 
L 399.564507 -47.52 
L 401.718408 -47.52 
L 403.872309 -47.52 
L 406.02621 -47.52 
L 408.180111 -47.52 
L 410.334011 -47.52 
L 412.487912 -47.52 
L 414.641813 -47.52 
L 416.795714 -47.52 
L 418.949615 -47.52 
L 421.103516 -47.52 
L 423.257417 -47.52 
L 425.411318 -47.52 
L 427.565219 -47.52 
L 429.719119 -47.52 
L 431.87302 -47.52 
L 434.026921 -47.52 
L 436.180822 -47.52 
L 438.334723 -47.52 
L 440.488624 -47.52 
L 442.642525 -47.52 
L 444.796426 -47.52 
L 446.950327 -47.52 
L 449.104227 -47.52 
L 451.258128 -47.52 
L 453.412029 -47.52 
L 455.56593 -47.52 
L 457.719831 -47.52 
L 459.873732 -47.52 
L 462.027633 -47.52 
L 464.181534 -47.52 
L 466.335435 -47.52 
L 468.489335 -47.52 
L 470.643236 -47.52 
L 472.797137 -47.52 
L 474.951038 -47.52 
L 477.104939 -47.52 
L 479.25884 -47.52 
L 481.412741 -47.52 
L 483.566642 -47.52 
L 485.720543 -47.52 
L 487.874443 -47.52 
L 490.028344 -47.52 
L 492.182245 -47.52 
L 494.336146 -47.52 
L 496.490047 -47.52 
L 498.643948 -47.52 
L 500.797849 -47.52 
L 502.95175 -47.52 
L 505.105651 -47.52 
L 507.259552 -47.52 
L 509.413452 -47.52 
L 511.567353 -47.52 
L 513.721254 -47.52 
L 515.875155 -47.52 
L 518.029056 -47.52 
L 520.182957 -47.52 
L 522.336858 -47.52 
L 524.490759 -47.52 
L 526.64466 -47.52 
L 528.79856 -47.52 
L 530.952461 -47.52 
L 533.106362 -47.52 
L 535.260263 -47.52 
L 537.414164 -47.52 
L 539.568065 -47.52 
L 541.721966 -47.52 
L 543.875867 -47.52 
L 546.029768 -47.52 
L 548.183668 -47.52 
L 550.337569 -47.52 
L 552.49147 -47.52 
L 554.645371 -47.52 
L 556.799272 -47.52 
L 556.799272 -47.522196 
L 556.799272 -47.522196 
L 554.645371 -47.525523 
L 552.49147 -47.532498 
L 550.337569 -47.545448 
L 548.183668 -47.566618 
L 546.029768 -47.596836 
L 543.875867 -47.633943 
L 541.721966 -47.672029 
L 539.568065 -47.702511 
L 537.414164 -47.717159 
L 535.260263 -47.711718 
L 533.106362 -47.688028 
L 530.952461 -47.653353 
L 528.79856 -47.617437 
L 526.64466 -47.58919 
L 524.490759 -47.574671 
L 522.336858 -47.576641 
L 520.182957 -47.594774 
L 518.029056 -47.625663 
L 515.875155 -47.66278 
L 513.721254 -47.697475 
L 511.567353 -47.721766 
L 509.413452 -47.732216 
L 507.259552 -47.732697 
L 505.105651 -47.733813 
L 502.95175 -47.748424 
L 500.797849 -47.785104 
L 498.643948 -47.842954 
L 496.490047 -47.910786 
L 494.336146 -47.971436 
L 492.182245 -48.008935 
L 490.028344 -48.014561 
L 487.874443 -47.988753 
L 485.720543 -47.938933 
L 483.566642 -47.875774 
L 481.412741 -47.810448 
L 479.25884 -47.753302 
L 477.104939 -47.712749 
L 474.951038 -47.693437 
L 472.797137 -47.694369 
L 470.643236 -47.708709 
L 468.489335 -47.726515 
L 466.335435 -47.739841 
L 464.181534 -47.74774 
L 462.027633 -47.758114 
L 459.873732 -47.784573 
L 457.719831 -47.839078 
L 455.56593 -47.923826 
L 453.412029 -48.027001 
L 451.258128 -48.125587 
L 449.104227 -48.194644 
L 446.950327 -48.218235 
L 444.796426 -48.195818 
L 442.642525 -48.140739 
L 440.488624 -48.072635 
L 438.334723 -48.008825 
L 436.180822 -47.959161 
L 434.026921 -47.925521 
L 431.87302 -47.904297 
L 429.719119 -47.889489 
L 427.565219 -47.874858 
L 425.411318 -47.854998 
L 423.257417 -47.826041 
L 421.103516 -47.786581 
L 418.949615 -47.738541 
L 416.795714 -47.687102 
L 414.641813 -47.639279 
L 412.487912 -47.601806 
L 410.334011 -47.57949 
L 408.180111 -47.574635 
L 406.02621 -47.587075 
L 403.872309 -47.614057 
L 401.718408 -47.649913 
L 399.564507 -47.686432 
L 397.410606 -47.714959 
L 395.256705 -47.730046 
L 393.102804 -47.732837 
L 390.948903 -47.731722 
L 388.795002 -47.738952 
L 386.641102 -47.764258 
L 384.487201 -47.80866 
L 382.3333 -47.862121 
L 380.179399 -47.907073 
L 378.025498 -47.926622 
L 375.871597 -47.91324 
L 373.717696 -47.873053 
L 371.563795 -47.82336 
L 369.409894 -47.78516 
L 367.255994 -47.775191 
L 365.102093 -47.801467 
L 362.948192 -47.863276 
L 360.794291 -47.953668 
L 358.64039 -48.061827 
L 356.486489 -48.174447 
L 354.332588 -48.277456 
L 352.178687 -48.359685 
L 350.024786 -48.417893 
L 347.870886 -48.460103 
L 345.716985 -48.50434 
L 343.563084 -48.572623 
L 341.409183 -48.683166 
L 339.255282 -48.844668 
L 337.101381 -49.054912 
L 334.94748 -49.30309 
L 332.793579 -49.573154 
L 330.639678 -49.845984 
L 328.485778 -50.101169 
L 326.331877 -50.321385 
L 324.177976 -50.50021 
L 322.024075 -50.649168 
L 319.870174 -50.797613 
L 317.716273 -50.983086 
L 315.562372 -51.236296 
L 313.408471 -51.568556 
L 311.25457 -51.968683 
L 309.10067 -52.412162 
L 306.946769 -52.878963 
L 304.792868 -53.370587 
L 302.638967 -53.916946 
L 300.485066 -54.570625 
L 298.331165 -55.39376 
L 296.177264 -56.444421 
L 294.023363 -57.765758 
L 291.869462 -59.376734 
L 289.715561 -61.260808 
L 287.561661 -63.351607 
L 285.40776 -65.525678 
L 283.253859 -67.622823 
L 281.099958 -69.504366 
L 278.946057 -71.126805 
L 276.792156 -72.584746 
L 274.638255 -74.094117 
L 272.484354 -75.930446 
L 270.330453 -78.362895 
L 268.176553 -81.614517 
L 266.022652 -85.85377 
L 263.868751 -91.205129 
L 261.71485 -97.765671 
L 259.560949 -105.634258 
L 257.407048 -114.989935 
L 255.253147 -126.250567 
L 253.099246 -140.263931 
L 250.945345 -158.370141 
L 248.791445 -182.121723 
L 246.637544 -212.530676 
L 244.483643 -248.966735 
L 242.329742 -288.228519 
L 240.175841 -324.609134 
L 238.02194 -351.528259 
L 235.868039 -364.32 
L 233.714138 -362.666744 
L 231.560237 -351.024008 
L 229.406337 -336.557385 
L 227.252436 -325.721312 
L 225.098535 -321.38629 
L 222.944634 -321.952757 
L 220.790733 -322.720177 
L 218.636832 -318.636711 
L 216.482931 -306.914016 
L 214.32903 -288.152768 
L 212.175129 -265.577105 
L 210.021229 -243.12544 
L 207.867328 -223.656512 
L 205.713427 -208.138139 
L 203.559526 -195.902642 
L 201.405625 -185.510863 
L 199.251724 -175.650288 
L 197.097823 -165.655539 
L 194.943922 -155.531114 
L 192.790021 -145.647033 
L 190.63612 -136.400851 
L 188.48222 -128.035173 
L 186.328319 -120.617751 
L 184.174418 -114.10807 
L 182.020517 -108.454598 
L 179.866616 -103.695152 
L 177.712715 -100.042083 
L 175.558814 -97.953196 
L 173.404913 -98.19674 
L 171.251012 -101.865614 
L 169.097112 -110.214258 
L 166.943211 -124.198299 
L 164.78931 -143.774375 
L 162.635409 -167.295692 
L 160.481508 -191.481057 
L 158.327607 -212.200317 
L 156.173706 -225.762058 
L 154.019805 -229.969745 
L 151.865904 -224.394545 
L 149.712004 -209.97671 
L 147.558103 -188.531554 
L 145.404202 -162.531932 
L 143.250301 -134.987915 
L 141.0964 -109.041905 
L 138.942499 -87.247717 
L 136.788598 -70.933025 
L 134.634697 -60.056618 
L 132.480796 -53.599591 
L 130.326896 -50.18428 
L 128.172995 -48.573533 
z
" style="stroke: #4c72b0"/>
    </defs>
    <g clip-path="url(#p092484c85b)">
     <use xlink:href="#mf342303322" x="0" y="432" style="fill: #4c72b0; fill-opacity: 0.3; stroke: #4c72b0"/>
    </g>
   </g>
   <g id="FillBetweenPolyCollection_2">
    <defs>
     <path id="md3a8e450d9" d="M 115.363636 -48.641219 
L 115.363636 -47.52 
L 117.912746 -47.52 
L 120.461855 -47.52 
L 123.010964 -47.52 
L 125.560073 -47.52 
L 128.109182 -47.52 
L 130.658291 -47.52 
L 133.207401 -47.52 
L 135.75651 -47.52 
L 138.305619 -47.52 
L 140.854728 -47.52 
L 143.403837 -47.52 
L 145.952947 -47.52 
L 148.502056 -47.52 
L 151.051165 -47.52 
L 153.600274 -47.52 
L 156.149383 -47.52 
L 158.698492 -47.52 
L 161.247602 -47.52 
L 163.796711 -47.52 
L 166.34582 -47.52 
L 168.894929 -47.52 
L 171.444038 -47.52 
L 173.993148 -47.52 
L 176.542257 -47.52 
L 179.091366 -47.52 
L 181.640475 -47.52 
L 184.189584 -47.52 
L 186.738693 -47.52 
L 189.287803 -47.52 
L 191.836912 -47.52 
L 194.386021 -47.52 
L 196.93513 -47.52 
L 199.484239 -47.52 
L 202.033349 -47.52 
L 204.582458 -47.52 
L 207.131567 -47.52 
L 209.680676 -47.52 
L 212.229785 -47.52 
L 214.778894 -47.52 
L 217.328004 -47.52 
L 219.877113 -47.52 
L 222.426222 -47.52 
L 224.975331 -47.52 
L 227.52444 -47.52 
L 230.07355 -47.52 
L 232.622659 -47.52 
L 235.171768 -47.52 
L 237.720877 -47.52 
L 240.269986 -47.52 
L 242.819095 -47.52 
L 245.368205 -47.52 
L 247.917314 -47.52 
L 250.466423 -47.52 
L 253.015532 -47.52 
L 255.564641 -47.52 
L 258.113751 -47.52 
L 260.66286 -47.52 
L 263.211969 -47.52 
L 265.761078 -47.52 
L 268.310187 -47.52 
L 270.859296 -47.52 
L 273.408406 -47.52 
L 275.957515 -47.52 
L 278.506624 -47.52 
L 281.055733 -47.52 
L 283.604842 -47.52 
L 286.153952 -47.52 
L 288.703061 -47.52 
L 291.25217 -47.52 
L 293.801279 -47.52 
L 296.350388 -47.52 
L 298.899497 -47.52 
L 301.448607 -47.52 
L 303.997716 -47.52 
L 306.546825 -47.52 
L 309.095934 -47.52 
L 311.645043 -47.52 
L 314.194153 -47.52 
L 316.743262 -47.52 
L 319.292371 -47.52 
L 321.84148 -47.52 
L 324.390589 -47.52 
L 326.939698 -47.52 
L 329.488808 -47.52 
L 332.037917 -47.52 
L 334.587026 -47.52 
L 337.136135 -47.52 
L 339.685244 -47.52 
L 342.234354 -47.52 
L 344.783463 -47.52 
L 347.332572 -47.52 
L 349.881681 -47.52 
L 352.43079 -47.52 
L 354.979899 -47.52 
L 357.529009 -47.52 
L 360.078118 -47.52 
L 362.627227 -47.52 
L 365.176336 -47.52 
L 367.725445 -47.52 
L 370.274555 -47.52 
L 372.823664 -47.52 
L 375.372773 -47.52 
L 377.921882 -47.52 
L 380.470991 -47.52 
L 383.020101 -47.52 
L 385.56921 -47.52 
L 388.118319 -47.52 
L 390.667428 -47.52 
L 393.216537 -47.52 
L 395.765646 -47.52 
L 398.314756 -47.52 
L 400.863865 -47.52 
L 403.412974 -47.52 
L 405.962083 -47.52 
L 408.511192 -47.52 
L 411.060302 -47.52 
L 413.609411 -47.52 
L 416.15852 -47.52 
L 418.707629 -47.52 
L 421.256738 -47.52 
L 423.805847 -47.52 
L 426.354957 -47.52 
L 428.904066 -47.52 
L 431.453175 -47.52 
L 434.002284 -47.52 
L 436.551393 -47.52 
L 439.100503 -47.52 
L 441.649612 -47.52 
L 444.198721 -47.52 
L 446.74783 -47.52 
L 449.296939 -47.52 
L 451.846048 -47.52 
L 454.395158 -47.52 
L 456.944267 -47.52 
L 459.493376 -47.52 
L 462.042485 -47.52 
L 464.591594 -47.52 
L 467.140704 -47.52 
L 469.689813 -47.52 
L 472.238922 -47.52 
L 474.788031 -47.52 
L 477.33714 -47.52 
L 479.886249 -47.52 
L 482.435359 -47.52 
L 484.984468 -47.52 
L 487.533577 -47.52 
L 490.082686 -47.52 
L 492.631795 -47.52 
L 495.180905 -47.52 
L 497.730014 -47.52 
L 500.279123 -47.52 
L 502.828232 -47.52 
L 505.377341 -47.52 
L 507.92645 -47.52 
L 510.47556 -47.52 
L 513.024669 -47.52 
L 515.573778 -47.52 
L 518.122887 -47.52 
L 520.671996 -47.52 
L 523.221106 -47.52 
L 525.770215 -47.52 
L 528.319324 -47.52 
L 530.868433 -47.52 
L 533.417542 -47.52 
L 535.966651 -47.52 
L 538.515761 -47.52 
L 541.06487 -47.52 
L 543.613979 -47.52 
L 546.163088 -47.52 
L 548.712197 -47.52 
L 551.261307 -47.52 
L 553.810416 -47.52 
L 556.359525 -47.52 
L 558.908634 -47.52 
L 561.457743 -47.52 
L 564.006852 -47.52 
L 566.555962 -47.52 
L 569.105071 -47.52 
L 571.65418 -47.52 
L 574.203289 -47.52 
L 576.752398 -47.52 
L 579.301508 -47.52 
L 581.850617 -47.52 
L 584.399726 -47.52 
L 586.948835 -47.52 
L 589.497944 -47.52 
L 592.047053 -47.52 
L 594.596163 -47.52 
L 597.145272 -47.52 
L 599.694381 -47.52 
L 602.24349 -47.52 
L 604.792599 -47.52 
L 607.341709 -47.52 
L 609.890818 -47.52 
L 612.439927 -47.52 
L 614.989036 -47.52 
L 617.538145 -47.52 
L 620.087254 -47.52 
L 622.636364 -47.52 
L 622.636364 -47.526142 
L 622.636364 -47.526142 
L 620.087254 -47.532056 
L 617.538145 -47.542408 
L 614.989036 -47.559432 
L 612.439927 -47.5857 
L 609.890818 -47.623652 
L 607.341709 -47.674865 
L 604.792599 -47.739174 
L 602.24349 -47.81394 
L 599.694381 -47.893827 
L 597.145272 -47.971401 
L 594.596163 -48.038635 
L 592.047053 -48.089038 
L 589.497944 -48.119787 
L 586.948835 -48.133042 
L 584.399726 -48.135815 
L 581.850617 -48.13817 
L 579.301508 -48.150155 
L 576.752398 -48.178384 
L 574.203289 -48.223417 
L 571.65418 -48.278907 
L 569.105071 -48.332915 
L 566.555962 -48.371076 
L 564.006852 -48.380619 
L 561.457743 -48.35394 
L 558.908634 -48.290603 
L 556.359525 -48.197233 
L 553.810416 -48.085519 
L 551.261307 -47.969182 
L 548.712197 -47.860991 
L 546.163088 -47.770693 
L 543.613979 -47.704227 
L 541.06487 -47.664067 
L 538.515761 -47.650193 
L 535.966651 -47.66114 
L 533.417542 -47.694716 
L 530.868433 -47.748297 
L 528.319324 -47.818795 
L 525.770215 -47.902521 
L 523.221106 -47.995109 
L 520.671996 -48.091581 
L 518.122887 -48.186518 
L 515.573778 -48.274274 
L 513.024669 -48.349248 
L 510.47556 -48.40625 
L 507.92645 -48.44105 
L 505.377341 -48.451077 
L 502.828232 -48.436087 
L 500.279123 -48.398486 
L 497.730014 -48.343056 
L 495.180905 -48.276036 
L 492.631795 -48.203802 
L 490.082686 -48.131644 
L 487.533577 -48.063088 
L 484.984468 -47.999994 
L 482.435359 -47.943288 
L 479.886249 -47.893872 
L 477.33714 -47.853246 
L 474.788031 -47.823519 
L 472.238922 -47.806852 
L 469.689813 -47.804648 
L 467.140704 -47.816931 
L 464.591594 -47.842217 
L 462.042485 -47.877933 
L 459.493376 -47.921143 
L 456.944267 -47.969183 
L 454.395158 -48.019884 
L 451.846048 -48.071315 
L 449.296939 -48.121304 
L 446.74783 -48.167157 
L 444.198721 -48.205968 
L 441.649612 -48.235537 
L 439.100503 -48.255569 
L 436.551393 -48.268531 
L 434.002284 -48.27965 
L 431.453175 -48.295899 
L 428.904066 -48.32431 
L 426.354957 -48.370321 
L 423.805847 -48.436832 
L 421.256738 -48.524369 
L 418.707629 -48.632182 
L 416.15852 -48.75967 
L 413.609411 -48.907368 
L 411.060302 -49.076902 
L 408.511192 -49.269841 
L 405.962083 -49.48596 
L 403.412974 -49.721796 
L 400.863865 -49.970395 
L 398.314756 -50.222647 
L 395.765646 -50.469906 
L 393.216537 -50.706909 
L 390.667428 -50.933725 
L 388.118319 -51.155757 
L 385.56921 -51.381522 
L 383.020101 -51.618874 
L 380.470991 -51.871016 
L 377.921882 -52.133866 
L 375.372773 -52.395945 
L 372.823664 -52.641068 
L 370.274555 -52.853092 
L 367.725445 -53.021209 
L 365.176336 -53.144023 
L 362.627227 -53.231168 
L 360.078118 -53.302072 
L 357.529009 -53.38249 
L 354.979899 -53.500047 
L 352.43079 -53.680114 
L 349.881681 -53.942924 
L 347.332572 -54.302205 
L 344.783463 -54.765005 
L 342.234354 -55.332136 
L 339.685244 -55.998698 
L 337.136135 -56.754506 
L 334.587026 -57.584562 
L 332.037917 -58.470025 
L 329.488808 -59.390069 
L 326.939698 -60.324793 
L 324.390589 -61.258882 
L 321.84148 -62.185329 
L 319.292371 -63.108255 
L 316.743262 -64.043961 
L 314.194153 -65.019694 
L 311.645043 -66.070177 
L 309.095934 -67.232546 
L 306.546825 -68.540751 
L 303.997716 -70.020578 
L 301.448607 -71.686233 
L 298.899497 -73.539043 
L 296.350388 -75.568363 
L 293.801279 -77.754502 
L 291.25217 -80.073317 
L 288.703061 -82.501959 
L 286.153952 -85.025053 
L 283.604842 -87.640258 
L 281.055733 -90.361947 
L 278.506624 -93.222028 
L 275.957515 -96.267733 
L 273.408406 -99.557413 
L 270.859296 -103.156347 
L 268.310187 -107.134678 
L 265.761078 -111.568257 
L 263.211969 -116.54089 
L 260.66286 -122.144012 
L 258.113751 -128.46867 
L 255.564641 -135.586107 
L 253.015532 -143.517527 
L 250.466423 -152.199779 
L 247.917314 -161.459192 
L 245.368205 -171.007429 
L 242.819095 -180.468614 
L 240.269986 -189.43653 
L 237.720877 -197.547963 
L 235.171768 -204.549453 
L 232.622659 -210.334785 
L 230.07355 -214.940676 
L 227.52444 -218.503971 
L 224.975331 -221.197525 
L 222.426222 -223.167372 
L 219.877113 -224.489052 
L 217.328004 -225.150232 
L 214.778894 -225.056748 
L 212.229785 -224.054753 
L 209.680676 -221.962972 
L 207.131567 -218.612099 
L 204.582458 -213.888914 
L 202.033349 -207.779313 
L 199.484239 -200.400172 
L 196.93513 -192.009245 
L 194.386021 -182.987791 
L 191.836912 -173.800532 
L 189.287803 -164.946659 
L 186.738693 -156.918482 
L 184.189584 -150.178885 
L 181.640475 -145.157328 
L 179.091366 -142.252433 
L 176.542257 -141.822728 
L 173.993148 -144.14917 
L 171.444038 -149.363241 
L 168.894929 -157.349654 
L 166.34582 -167.648182 
L 163.796711 -179.389862 
L 161.247602 -191.304315 
L 158.698492 -201.824199 
L 156.149383 -209.289907 
L 153.600274 -212.226476 
L 151.051165 -209.634394 
L 148.502056 -201.218251 
L 145.952947 -187.48274 
L 143.403837 -169.657386 
L 140.854728 -149.461534 
L 138.305619 -128.771224 
L 135.75651 -109.279356 
L 133.207401 -92.237328 
L 130.658291 -78.332658 
L 128.109182 -67.708563 
L 125.560073 -60.089006 
L 123.010964 -54.95119 
L 120.461855 -51.69023 
L 117.912746 -49.740354 
L 115.363636 -48.641219 
z
" style="stroke: #dd8452"/>
    </defs>
    <g clip-path="url(#p092484c85b)">
     <use xlink:href="#md3a8e450d9" x="0" y="432" style="fill: #dd8452; fill-opacity: 0.3; stroke: #dd8452"/>
    </g>
   </g>
   <g id="patch_3">
    <path d="M 90 384.48 
L 90 51.84 
" style="fill: none; stroke: #cccccc; stroke-width: 1.25; stroke-linejoin: miter; stroke-linecap: square"/>
   </g>
   <g id="patch_4">
    <path d="M 648 384.48 
L 648 51.84 
" style="fill: none; stroke: #cccccc; stroke-width: 1.25; stroke-linejoin: miter; stroke-linecap: square"/>
   </g>
   <g id="patch_5">
    <path d="M 90 384.48 
L 648 384.48 
" style="fill: none; stroke: #cccccc; stroke-width: 1.25; stroke-linejoin: miter; stroke-linecap: square"/>
   </g>
   <g id="patch_6">
    <path d="M 90 51.84 
L 648 51.84 
" style="fill: none; stroke: #cccccc; stroke-width: 1.25; stroke-linejoin: miter; stroke-linecap: square"/>
   </g>
   <g id="text_17">
    <!-- KDE of Number of Actors by Content Type -->
    <g style="fill: #262626" transform="translate(256.723125 45.84) scale(0.12 -0.12)">
     <defs>
      <path id="ArialMT-4b" d="M 469 0 
L 469 4581 
L 1075 4581 
L 1075 2309 
L 3350 4581 
L 4172 4581 
L 2250 2725 
L 4256 0 
L 3456 0 
L 1825 2319 
L 1075 1588 
L 1075 0 
L 469 0 
z
" transform="scale(0.015625)"/>
      <path id="ArialMT-45" d="M 506 0 
L 506 4581 
L 3819 4581 
L 3819 4041 
L 1113 4041 
L 1113 2638 
L 3647 2638 
L 3647 2100 
L 1113 2100 
L 1113 541 
L 3925 541 
L 3925 0 
L 506 0 
z
" transform="scale(0.015625)"/>
      <path id="ArialMT-43" d="M 3763 1606 
L 4369 1453 
Q 4178 706 3683 314 
Q 3188 -78 2472 -78 
Q 1731 -78 1267 223 
Q 803 525 561 1097 
Q 319 1669 319 2325 
Q 319 3041 592 3573 
Q 866 4106 1370 4382 
Q 1875 4659 2481 4659 
Q 3169 4659 3637 4309 
Q 4106 3959 4291 3325 
L 3694 3184 
Q 3534 3684 3231 3912 
Q 2928 4141 2469 4141 
Q 1941 4141 1586 3887 
Q 1231 3634 1087 3207 
Q 944 2781 944 2328 
Q 944 1744 1114 1308 
Q 1284 872 1643 656 
Q 2003 441 2422 441 
Q 2931 441 3284 734 
Q 3638 1028 3763 1606 
z
" transform="scale(0.015625)"/>
      <path id="ArialMT-54" d="M 1659 0 
L 1659 4041 
L 150 4041 
L 150 4581 
L 3781 4581 
L 3781 4041 
L 2266 4041 
L 2266 0 
L 1659 0 
z
" transform="scale(0.015625)"/>
      <path id="ArialMT-70" d="M 422 -1272 
L 422 3319 
L 934 3319 
L 934 2888 
Q 1116 3141 1344 3267 
Q 1572 3394 1897 3394 
Q 2322 3394 2647 3175 
Q 2972 2956 3137 2557 
Q 3303 2159 3303 1684 
Q 3303 1175 3120 767 
Q 2938 359 2589 142 
Q 2241 -75 1856 -75 
Q 1575 -75 1351 44 
Q 1128 163 984 344 
L 984 -1272 
L 422 -1272 
z
M 931 1641 
Q 931 1000 1190 694 
Q 1450 388 1819 388 
Q 2194 388 2461 705 
Q 2728 1022 2728 1688 
Q 2728 2322 2467 2637 
Q 2206 2953 1844 2953 
Q 1484 2953 1207 2617 
Q 931 2281 931 1641 
z
" transform="scale(0.015625)"/>
     </defs>
     <use xlink:href="#ArialMT-4b"/>
     <use xlink:href="#ArialMT-44" transform="translate(66.699219 0)"/>
     <use xlink:href="#ArialMT-45" transform="translate(138.916016 0)"/>
     <use xlink:href="#ArialMT-20" transform="translate(205.615234 0)"/>
     <use xlink:href="#ArialMT-6f" transform="translate(233.398438 0)"/>
     <use xlink:href="#ArialMT-66" transform="translate(289.013672 0)"/>
     <use xlink:href="#ArialMT-20" transform="translate(316.796875 0)"/>
     <use xlink:href="#ArialMT-4e" transform="translate(344.580078 0)"/>
     <use xlink:href="#ArialMT-75" transform="translate(416.796875 0)"/>
     <use xlink:href="#ArialMT-6d" transform="translate(472.412109 0)"/>
     <use xlink:href="#ArialMT-62" transform="translate(555.712891 0)"/>
     <use xlink:href="#ArialMT-65" transform="translate(611.328125 0)"/>
     <use xlink:href="#ArialMT-72" transform="translate(666.943359 0)"/>
     <use xlink:href="#ArialMT-20" transform="translate(700.244141 0)"/>
     <use xlink:href="#ArialMT-6f" transform="translate(728.027344 0)"/>
     <use xlink:href="#ArialMT-66" transform="translate(783.642578 0)"/>
     <use xlink:href="#ArialMT-20" transform="translate(811.425781 0)"/>
     <use xlink:href="#ArialMT-41" transform="translate(833.708984 0)"/>
     <use xlink:href="#ArialMT-63" transform="translate(900.408203 0)"/>
     <use xlink:href="#ArialMT-74" transform="translate(950.408203 0)"/>
     <use xlink:href="#ArialMT-6f" transform="translate(978.191406 0)"/>
     <use xlink:href="#ArialMT-72" transform="translate(1033.806641 0)"/>
     <use xlink:href="#ArialMT-73" transform="translate(1067.107422 0)"/>
     <use xlink:href="#ArialMT-20" transform="translate(1117.107422 0)"/>
     <use xlink:href="#ArialMT-62" transform="translate(1144.890625 0)"/>
     <use xlink:href="#ArialMT-79" transform="translate(1200.505859 0)"/>
     <use xlink:href="#ArialMT-20" transform="translate(1250.505859 0)"/>
     <use xlink:href="#ArialMT-43" transform="translate(1278.289062 0)"/>
     <use xlink:href="#ArialMT-6f" transform="translate(1350.505859 0)"/>
     <use xlink:href="#ArialMT-6e" transform="translate(1406.121094 0)"/>
     <use xlink:href="#ArialMT-74" transform="translate(1461.736328 0)"/>
     <use xlink:href="#ArialMT-65" transform="translate(1489.519531 0)"/>
     <use xlink:href="#ArialMT-6e" transform="translate(1545.134766 0)"/>
     <use xlink:href="#ArialMT-74" transform="translate(1600.75 0)"/>
     <use xlink:href="#ArialMT-20" transform="translate(1628.533203 0)"/>
     <use xlink:href="#ArialMT-54" transform="translate(1654.566406 0)"/>
     <use xlink:href="#ArialMT-79" transform="translate(1710.150391 0)"/>
     <use xlink:href="#ArialMT-70" transform="translate(1760.150391 0)"/>
     <use xlink:href="#ArialMT-65" transform="translate(1815.765625 0)"/>
    </g>
   </g>
   <g id="legend_1">
    <g id="patch_7">
     <path d="M 560.472656 108.374687 
L 640.3 108.374687 
Q 642.5 108.374687 642.5 106.174688 
L 642.5 59.54 
Q 642.5 57.34 640.3 57.34 
L 560.472656 57.34 
Q 558.272656 57.34 558.272656 59.54 
L 558.272656 106.174688 
Q 558.272656 108.374687 560.472656 108.374687 
z
" style="fill: #ffffff; opacity: 0.8; stroke: #cccccc; stroke-linejoin: miter"/>
    </g>
    <g id="text_18">
     <!-- Type -->
     <g style="fill: #262626" transform="translate(587.378516 70.329375) scale(0.12 -0.12)">
      <use xlink:href="#ArialMT-54"/>
      <use xlink:href="#ArialMT-79" transform="translate(55.583984 0)"/>
      <use xlink:href="#ArialMT-70" transform="translate(105.583984 0)"/>
      <use xlink:href="#ArialMT-65" transform="translate(161.199219 0)"/>
     </g>
    </g>
    <g id="patch_8">
     <path d="M 562.672656 86.228594 
L 584.672656 86.228594 
L 584.672656 78.528594 
L 562.672656 78.528594 
z
" style="fill: #4c72b0; fill-opacity: 0.3; stroke: #4c72b0; stroke-linejoin: miter"/>
    </g>
    <g id="text_19">
     <!-- Movie -->
     <g style="fill: #262626" transform="translate(593.472656 86.228594) scale(0.11 -0.11)">
      <defs>
       <path id="ArialMT-4d" d="M 475 0 
L 475 4581 
L 1388 4581 
L 2472 1338 
Q 2622 884 2691 659 
Q 2769 909 2934 1394 
L 4031 4581 
L 4847 4581 
L 4847 0 
L 4263 0 
L 4263 3834 
L 2931 0 
L 2384 0 
L 1059 3900 
L 1059 0 
L 475 0 
z
" transform="scale(0.015625)"/>
       <path id="ArialMT-76" d="M 1344 0 
L 81 3319 
L 675 3319 
L 1388 1331 
Q 1503 1009 1600 663 
Q 1675 925 1809 1294 
L 2547 3319 
L 3125 3319 
L 1869 0 
L 1344 0 
z
" transform="scale(0.015625)"/>
      </defs>
      <use xlink:href="#ArialMT-4d"/>
      <use xlink:href="#ArialMT-6f" transform="translate(83.300781 0)"/>
      <use xlink:href="#ArialMT-76" transform="translate(138.916016 0)"/>
      <use xlink:href="#ArialMT-69" transform="translate(188.916016 0)"/>
      <use xlink:href="#ArialMT-65" transform="translate(211.132812 0)"/>
     </g>
    </g>
    <g id="patch_9">
     <path d="M 562.672656 101.788437 
L 584.672656 101.788437 
L 584.672656 94.088437 
L 562.672656 94.088437 
z
" style="fill: #dd8452; fill-opacity: 0.3; stroke: #dd8452; stroke-linejoin: miter"/>
    </g>
    <g id="text_20">
     <!-- TV Show -->
     <g style="fill: #262626" transform="translate(593.472656 101.788437) scale(0.11 -0.11)">
      <defs>
       <path id="ArialMT-56" d="M 1803 0 
L 28 4581 
L 684 4581 
L 1875 1253 
Q 2019 853 2116 503 
Q 2222 878 2363 1253 
L 3600 4581 
L 4219 4581 
L 2425 0 
L 1803 0 
z
" transform="scale(0.015625)"/>
       <path id="ArialMT-53" d="M 288 1472 
L 859 1522 
Q 900 1178 1048 958 
Q 1197 738 1509 602 
Q 1822 466 2213 466 
Q 2559 466 2825 569 
Q 3091 672 3220 851 
Q 3350 1031 3350 1244 
Q 3350 1459 3225 1620 
Q 3100 1781 2813 1891 
Q 2628 1963 1997 2114 
Q 1366 2266 1113 2400 
Q 784 2572 623 2826 
Q 463 3081 463 3397 
Q 463 3744 659 4045 
Q 856 4347 1234 4503 
Q 1613 4659 2075 4659 
Q 2584 4659 2973 4495 
Q 3363 4331 3572 4012 
Q 3781 3694 3797 3291 
L 3216 3247 
Q 3169 3681 2898 3903 
Q 2628 4125 2100 4125 
Q 1550 4125 1298 3923 
Q 1047 3722 1047 3438 
Q 1047 3191 1225 3031 
Q 1400 2872 2139 2705 
Q 2878 2538 3153 2413 
Q 3553 2228 3743 1945 
Q 3934 1663 3934 1294 
Q 3934 928 3725 604 
Q 3516 281 3123 101 
Q 2731 -78 2241 -78 
Q 1619 -78 1198 103 
Q 778 284 539 648 
Q 300 1013 288 1472 
z
" transform="scale(0.015625)"/>
       <path id="ArialMT-68" d="M 422 0 
L 422 4581 
L 984 4581 
L 984 2938 
Q 1378 3394 1978 3394 
Q 2347 3394 2619 3248 
Q 2891 3103 3008 2847 
Q 3125 2591 3125 2103 
L 3125 0 
L 2563 0 
L 2563 2103 
Q 2563 2525 2380 2717 
Q 2197 2909 1863 2909 
Q 1613 2909 1392 2779 
Q 1172 2650 1078 2428 
Q 984 2206 984 1816 
L 984 0 
L 422 0 
z
" transform="scale(0.015625)"/>
       <path id="ArialMT-77" d="M 1034 0 
L 19 3319 
L 600 3319 
L 1128 1403 
L 1325 691 
Q 1338 744 1497 1375 
L 2025 3319 
L 2603 3319 
L 3100 1394 
L 3266 759 
L 3456 1400 
L 4025 3319 
L 4572 3319 
L 3534 0 
L 2950 0 
L 2422 1988 
L 2294 2553 
L 1622 0 
L 1034 0 
z
" transform="scale(0.015625)"/>
      </defs>
      <use xlink:href="#ArialMT-54"/>
      <use xlink:href="#ArialMT-56" transform="translate(61.083984 0)"/>
      <use xlink:href="#ArialMT-20" transform="translate(127.783203 0)"/>
      <use xlink:href="#ArialMT-53" transform="translate(155.566406 0)"/>
      <use xlink:href="#ArialMT-68" transform="translate(222.265625 0)"/>
      <use xlink:href="#ArialMT-6f" transform="translate(277.880859 0)"/>
      <use xlink:href="#ArialMT-77" transform="translate(333.496094 0)"/>
     </g>
    </g>
   </g>
  </g>
 </g>
 <defs>
  <clipPath id="p092484c85b">
   <rect x="90" y="51.84" width="558" height="332.64"/>
  </clipPath>
 </defs>
</svg>
